<?xml version="1.0" encoding="UTF-8" standalone="no"?>
<!DOCTYPE svg PUBLIC "-//W3C//DTD SVG 1.1//EN"
 "http://www.w3.org/Graphics/SVG/1.1/DTD/svg11.dtd">
<!-- Generated by graphviz version 2.43.0 (0)
 -->
<!-- Title: G Pages: 1 -->
<svg width="1466pt" height="2050pt"
 viewBox="0.00 0.00 1466.20 2050.20" xmlns="http://www.w3.org/2000/svg" xmlns:xlink="http://www.w3.org/1999/xlink">
<g id="graph0" class="graph" transform="scale(1 1) rotate(0) translate(21.6 2028.6)">
<title>G</title>
<polygon fill="#111111" stroke="transparent" points="-21.6,21.6 -21.6,-2028.6 1444.6,-2028.6 1444.6,21.6 -21.6,21.6"/>
<!-- app.ts -->
<g id="node1" class="node">
<title>app.ts</title>
<path fill="none" stroke="#c6c5fe" d="M101.33,-1618C101.33,-1618 62.67,-1618 62.67,-1618 58.83,-1618 55,-1614.17 55,-1610.33 55,-1610.33 55,-1602.67 55,-1602.67 55,-1598.83 58.83,-1595 62.67,-1595 62.67,-1595 101.33,-1595 101.33,-1595 105.17,-1595 109,-1598.83 109,-1602.67 109,-1602.67 109,-1610.33 109,-1610.33 109,-1614.17 105.17,-1618 101.33,-1618"/>
<text text-anchor="middle" x="82" y="-1602.8" font-family="Arial" font-size="14.00" fill="#c6c5fe">app.ts</text>
</g>
<!-- config/index.ts -->
<g id="node2" class="node">
<title>config/index.ts</title>
<path fill="none" stroke="#cfffac" d="M1403.83,-1758C1403.83,-1758 1316.17,-1758 1316.17,-1758 1312.33,-1758 1308.5,-1754.17 1308.5,-1750.33 1308.5,-1750.33 1308.5,-1742.67 1308.5,-1742.67 1308.5,-1738.83 1312.33,-1735 1316.17,-1735 1316.17,-1735 1403.83,-1735 1403.83,-1735 1407.67,-1735 1411.5,-1738.83 1411.5,-1742.67 1411.5,-1742.67 1411.5,-1750.33 1411.5,-1750.33 1411.5,-1754.17 1407.67,-1758 1403.83,-1758"/>
<text text-anchor="middle" x="1360" y="-1742.8" font-family="Arial" font-size="14.00" fill="#cfffac">config/index.ts</text>
</g>
<!-- app.ts&#45;&gt;config/index.ts -->
<g id="edge1" class="edge">
<title>app.ts&#45;&gt;config/index.ts</title>
<path fill="none" stroke="#757575" d="M109.32,-1607.77C126.36,-1609.78 148.24,-1614.68 164,-1626.5 189.49,-1645.62 181.69,-1662.42 200,-1688.5 289,-1815.28 269.1,-1955.5 424,-1955.5 424,-1955.5 424,-1955.5 886,-1955.5 969.44,-1955.5 1190.87,-1981.71 1261,-1936.5 1268.9,-1931.41 1325.67,-1815.39 1349.01,-1767.19"/>
<polygon fill="#757575" stroke="#757575" points="1352.26,-1768.53 1353.46,-1758.01 1345.95,-1765.48 1352.26,-1768.53"/>
</g>
<!-- routes/healthRoutes.ts -->
<g id="node3" class="node">
<title>routes/healthRoutes.ts</title>
<path fill="none" stroke="#c6c5fe" d="M493.33,-1529C493.33,-1529 356.67,-1529 356.67,-1529 352.83,-1529 349,-1525.17 349,-1521.33 349,-1521.33 349,-1513.67 349,-1513.67 349,-1509.83 352.83,-1506 356.67,-1506 356.67,-1506 493.33,-1506 493.33,-1506 497.17,-1506 501,-1509.83 501,-1513.67 501,-1513.67 501,-1521.33 501,-1521.33 501,-1525.17 497.17,-1529 493.33,-1529"/>
<text text-anchor="middle" x="425" y="-1513.8" font-family="Arial" font-size="14.00" fill="#c6c5fe">routes/healthRoutes.ts</text>
</g>
<!-- app.ts&#45;&gt;routes/healthRoutes.ts -->
<g id="edge2" class="edge">
<title>app.ts&#45;&gt;routes/healthRoutes.ts</title>
<path fill="none" stroke="#757575" d="M109.19,-1599.66C164.75,-1585.16 295.4,-1551.06 369.75,-1531.66"/>
<polygon fill="#757575" stroke="#757575" points="371.06,-1534.93 379.85,-1529.02 369.29,-1528.16 371.06,-1534.93"/>
</g>
<!-- routes/index.ts -->
<g id="node4" class="node">
<title>routes/index.ts</title>
<path fill="none" stroke="#c6c5fe" d="M296.33,-1193C296.33,-1193 207.67,-1193 207.67,-1193 203.83,-1193 200,-1189.17 200,-1185.33 200,-1185.33 200,-1177.67 200,-1177.67 200,-1173.83 203.83,-1170 207.67,-1170 207.67,-1170 296.33,-1170 296.33,-1170 300.17,-1170 304,-1173.83 304,-1177.67 304,-1177.67 304,-1185.33 304,-1185.33 304,-1189.17 300.17,-1193 296.33,-1193"/>
<text text-anchor="middle" x="252" y="-1177.8" font-family="Arial" font-size="14.00" fill="#c6c5fe">routes/index.ts</text>
</g>
<!-- app.ts&#45;&gt;routes/index.ts -->
<g id="edge3" class="edge">
<title>app.ts&#45;&gt;routes/index.ts</title>
<path fill="none" stroke="#757575" d="M87.67,-1594.69C110.75,-1536.3 212.74,-1278.28 242.7,-1202.5"/>
<polygon fill="#757575" stroke="#757575" points="246.01,-1203.64 246.43,-1193.05 239.5,-1201.07 246.01,-1203.64"/>
</g>
<!-- utils/errors.ts -->
<g id="node5" class="node">
<title>utils/errors.ts</title>
<path fill="none" stroke="#cfffac" d="M1399.33,-683C1399.33,-683 1320.67,-683 1320.67,-683 1316.83,-683 1313,-679.17 1313,-675.33 1313,-675.33 1313,-667.67 1313,-667.67 1313,-663.83 1316.83,-660 1320.67,-660 1320.67,-660 1399.33,-660 1399.33,-660 1403.17,-660 1407,-663.83 1407,-667.67 1407,-667.67 1407,-675.33 1407,-675.33 1407,-679.17 1403.17,-683 1399.33,-683"/>
<text text-anchor="middle" x="1360" y="-667.8" font-family="Arial" font-size="14.00" fill="#cfffac">utils/errors.ts</text>
</g>
<!-- app.ts&#45;&gt;utils/errors.ts -->
<g id="edge4" class="edge">
<title>app.ts&#45;&gt;utils/errors.ts</title>
<path fill="none" stroke="#757575" d="M83.31,-1594.78C87.15,-1462.24 130.28,-250.5 424,-250.5 424,-250.5 424,-250.5 886,-250.5 1052.88,-250.5 1132.42,-163.13 1261,-269.5 1321.02,-319.15 1349.68,-573.17 1357.04,-649.67"/>
<polygon fill="#757575" stroke="#757575" points="1353.59,-650.37 1358,-660 1360.56,-649.72 1353.59,-650.37"/>
</g>
<!-- utils/logger.ts -->
<g id="node6" class="node">
<title>utils/logger.ts</title>
<path fill="none" stroke="#cfffac" d="M1399.83,-1077C1399.83,-1077 1320.17,-1077 1320.17,-1077 1316.33,-1077 1312.5,-1073.17 1312.5,-1069.33 1312.5,-1069.33 1312.5,-1061.67 1312.5,-1061.67 1312.5,-1057.83 1316.33,-1054 1320.17,-1054 1320.17,-1054 1399.83,-1054 1399.83,-1054 1403.67,-1054 1407.5,-1057.83 1407.5,-1061.67 1407.5,-1061.67 1407.5,-1069.33 1407.5,-1069.33 1407.5,-1073.17 1403.67,-1077 1399.83,-1077"/>
<text text-anchor="middle" x="1360" y="-1061.8" font-family="Arial" font-size="14.00" fill="#cfffac">utils/logger.ts</text>
</g>
<!-- app.ts&#45;&gt;utils/logger.ts -->
<g id="edge5" class="edge">
<title>app.ts&#45;&gt;utils/logger.ts</title>
<path fill="none" stroke="#757575" d="M109.03,-1610.36C165.99,-1618.46 306.03,-1636.5 424,-1636.5 424,-1636.5 424,-1636.5 886,-1636.5 969.45,-1636.5 1198.48,-1671.78 1261,-1616.5 1342.05,-1544.83 1356.25,-1180.84 1358.57,-1087.39"/>
<polygon fill="#757575" stroke="#757575" points="1362.08,-1087.23 1358.8,-1077.15 1355.08,-1087.07 1362.08,-1087.23"/>
</g>
<!-- websocket/index.ts -->
<g id="node7" class="node">
<title>websocket/index.ts</title>
<path fill="none" stroke="#c6c5fe" d="M1203.33,-1768C1203.33,-1768 1087.67,-1768 1087.67,-1768 1083.83,-1768 1080,-1764.17 1080,-1760.33 1080,-1760.33 1080,-1752.67 1080,-1752.67 1080,-1748.83 1083.83,-1745 1087.67,-1745 1087.67,-1745 1203.33,-1745 1203.33,-1745 1207.17,-1745 1211,-1748.83 1211,-1752.67 1211,-1752.67 1211,-1760.33 1211,-1760.33 1211,-1764.17 1207.17,-1768 1203.33,-1768"/>
<text text-anchor="middle" x="1145.5" y="-1752.8" font-family="Arial" font-size="14.00" fill="#c6c5fe">websocket/index.ts</text>
</g>
<!-- app.ts&#45;&gt;websocket/index.ts -->
<g id="edge6" class="edge">
<title>app.ts&#45;&gt;websocket/index.ts</title>
<path fill="none" stroke="#757575" d="M109.29,-1610.6C125.51,-1613.71 146.5,-1618.79 164,-1626.5 181.6,-1634.25 182.56,-1642.39 200,-1650.5 294,-1694.2 320.34,-1715.5 424,-1715.5 424,-1715.5 424,-1715.5 644,-1715.5 795.57,-1715.5 972.09,-1734.41 1069.78,-1746.54"/>
<polygon fill="#757575" stroke="#757575" points="1069.49,-1750.03 1079.85,-1747.8 1070.36,-1743.09 1069.49,-1750.03"/>
</g>
<!-- routes/healthRoutes.ts&#45;&gt;utils/logger.ts -->
<g id="edge68" class="edge">
<title>routes/healthRoutes.ts&#45;&gt;utils/logger.ts</title>
<path fill="none" stroke="#757575" d="M501.11,-1527.5C515.96,-1529.13 531.45,-1530.58 546,-1531.5 625.29,-1536.52 1199.37,-1586.63 1261,-1536.5 1332.31,-1478.5 1353.44,-1172.02 1357.97,-1087.25"/>
<polygon fill="#757575" stroke="#757575" points="1361.46,-1087.38 1358.48,-1077.21 1354.47,-1087.02 1361.46,-1087.38"/>
</g>
<!-- controllers/healthController.ts -->
<g id="node15" class="node">
<title>controllers/healthController.ts</title>
<path fill="none" stroke="#c6c5fe" d="M1233.33,-1528C1233.33,-1528 1057.67,-1528 1057.67,-1528 1053.83,-1528 1050,-1524.17 1050,-1520.33 1050,-1520.33 1050,-1512.67 1050,-1512.67 1050,-1508.83 1053.83,-1505 1057.67,-1505 1057.67,-1505 1233.33,-1505 1233.33,-1505 1237.17,-1505 1241,-1508.83 1241,-1512.67 1241,-1512.67 1241,-1520.33 1241,-1520.33 1241,-1524.17 1237.17,-1528 1233.33,-1528"/>
<text text-anchor="middle" x="1145.5" y="-1512.8" font-family="Arial" font-size="14.00" fill="#c6c5fe">controllers/healthController.ts</text>
</g>
<!-- routes/healthRoutes.ts&#45;&gt;controllers/healthController.ts -->
<g id="edge67" class="edge">
<title>routes/healthRoutes.ts&#45;&gt;controllers/healthController.ts</title>
<path fill="none" stroke="#757575" d="M501.2,-1517.4C629.91,-1517.22 892.72,-1516.85 1039.47,-1516.65"/>
<polygon fill="#757575" stroke="#757575" points="1039.83,-1520.15 1049.83,-1516.63 1039.82,-1513.15 1039.83,-1520.15"/>
</g>
<!-- routes/index.ts&#45;&gt;routes/healthRoutes.ts -->
<g id="edge72" class="edge">
<title>routes/index.ts&#45;&gt;routes/healthRoutes.ts</title>
<path fill="none" stroke="#757575" d="M252.62,-1193.18C251.83,-1238.22 255.09,-1402.43 340,-1490.5 344.09,-1494.74 348.84,-1498.31 353.97,-1501.33"/>
<polygon fill="#757575" stroke="#757575" points="352.4,-1504.46 362.9,-1505.89 355.58,-1498.22 352.4,-1504.46"/>
</g>
<!-- routes/index.ts&#45;&gt;utils/logger.ts -->
<g id="edge81" class="edge">
<title>routes/index.ts&#45;&gt;utils/logger.ts</title>
<path fill="none" stroke="#757575" d="M256.67,-1193.38C266.07,-1221.99 293.57,-1295.53 340,-1338.5 448.31,-1438.73 494.43,-1476.5 642,-1476.5 642,-1476.5 642,-1476.5 886,-1476.5 969.74,-1476.5 1197.3,-1493.86 1261,-1439.5 1315.89,-1392.66 1347.7,-1160.7 1356.49,-1087.6"/>
<polygon fill="#757575" stroke="#757575" points="1360.01,-1087.63 1357.7,-1077.29 1353.06,-1086.81 1360.01,-1087.63"/>
</g>
<!-- routes/adminRoutes.ts -->
<g id="node35" class="node">
<title>routes/adminRoutes.ts</title>
<path fill="none" stroke="#c6c5fe" d="M953.33,-894C953.33,-894 816.67,-894 816.67,-894 812.83,-894 809,-890.17 809,-886.33 809,-886.33 809,-878.67 809,-878.67 809,-874.83 812.83,-871 816.67,-871 816.67,-871 953.33,-871 953.33,-871 957.17,-871 961,-874.83 961,-878.67 961,-878.67 961,-886.33 961,-886.33 961,-890.17 957.17,-894 953.33,-894"/>
<text text-anchor="middle" x="885" y="-878.8" font-family="Arial" font-size="14.00" fill="#c6c5fe">routes/adminRoutes.ts</text>
</g>
<!-- routes/index.ts&#45;&gt;routes/adminRoutes.ts -->
<g id="edge69" class="edge">
<title>routes/index.ts&#45;&gt;routes/adminRoutes.ts</title>
<path fill="none" stroke="#757575" d="M253.22,-1169.86C254.67,-1130.46 265.16,-1001.28 340,-942.5 479.67,-832.8 705.39,-851.31 817.05,-869.28"/>
<polygon fill="#757575" stroke="#757575" points="816.72,-872.78 827.16,-870.96 817.87,-865.87 816.72,-872.78"/>
</g>
<!-- routes/authRoutes.ts -->
<g id="node36" class="node">
<title>routes/authRoutes.ts</title>
<path fill="none" stroke="#c6c5fe" d="M947.83,-935C947.83,-935 822.17,-935 822.17,-935 818.33,-935 814.5,-931.17 814.5,-927.33 814.5,-927.33 814.5,-919.67 814.5,-919.67 814.5,-915.83 818.33,-912 822.17,-912 822.17,-912 947.83,-912 947.83,-912 951.67,-912 955.5,-915.83 955.5,-919.67 955.5,-919.67 955.5,-927.33 955.5,-927.33 955.5,-931.17 951.67,-935 947.83,-935"/>
<text text-anchor="middle" x="885" y="-919.8" font-family="Arial" font-size="14.00" fill="#c6c5fe">routes/authRoutes.ts</text>
</g>
<!-- routes/index.ts&#45;&gt;routes/authRoutes.ts -->
<g id="edge70" class="edge">
<title>routes/index.ts&#45;&gt;routes/authRoutes.ts</title>
<path fill="none" stroke="#757575" d="M254.14,-1169.83C258.26,-1134.73 275.7,-1029.67 340,-982.5 412.09,-929.62 651.13,-949.21 740,-939.5 760.84,-937.22 783.38,-934.73 804.3,-932.41"/>
<polygon fill="#757575" stroke="#757575" points="804.87,-935.86 814.42,-931.28 804.1,-928.91 804.87,-935.86"/>
</g>
<!-- routes/dashboardRoutes.ts -->
<g id="node37" class="node">
<title>routes/dashboardRoutes.ts</title>
<path fill="none" stroke="#c6c5fe" d="M966.83,-1094C966.83,-1094 803.17,-1094 803.17,-1094 799.33,-1094 795.5,-1090.17 795.5,-1086.33 795.5,-1086.33 795.5,-1078.67 795.5,-1078.67 795.5,-1074.83 799.33,-1071 803.17,-1071 803.17,-1071 966.83,-1071 966.83,-1071 970.67,-1071 974.5,-1074.83 974.5,-1078.67 974.5,-1078.67 974.5,-1086.33 974.5,-1086.33 974.5,-1090.17 970.67,-1094 966.83,-1094"/>
<text text-anchor="middle" x="885" y="-1078.8" font-family="Arial" font-size="14.00" fill="#c6c5fe">routes/dashboardRoutes.ts</text>
</g>
<!-- routes/index.ts&#45;&gt;routes/dashboardRoutes.ts -->
<g id="edge71" class="edge">
<title>routes/index.ts&#45;&gt;routes/dashboardRoutes.ts</title>
<path fill="none" stroke="#757575" d="M304.2,-1173.2C397.81,-1158.05 602.89,-1125.06 776,-1098.5 782.27,-1097.54 788.75,-1096.55 795.27,-1095.57"/>
<polygon fill="#757575" stroke="#757575" points="796.16,-1098.98 805.53,-1094.03 795.12,-1092.05 796.16,-1098.98"/>
</g>
<!-- routes/imageRoutes.ts -->
<g id="node38" class="node">
<title>routes/imageRoutes.ts</title>
<path fill="none" stroke="#cfffac" d="M493.33,-1252C493.33,-1252 356.67,-1252 356.67,-1252 352.83,-1252 349,-1248.17 349,-1244.33 349,-1244.33 349,-1236.67 349,-1236.67 349,-1232.83 352.83,-1229 356.67,-1229 356.67,-1229 493.33,-1229 493.33,-1229 497.17,-1229 501,-1232.83 501,-1236.67 501,-1236.67 501,-1244.33 501,-1244.33 501,-1248.17 497.17,-1252 493.33,-1252"/>
<text text-anchor="middle" x="425" y="-1236.8" font-family="Arial" font-size="14.00" fill="#cfffac">routes/imageRoutes.ts</text>
</g>
<!-- routes/index.ts&#45;&gt;routes/imageRoutes.ts -->
<g id="edge73" class="edge">
<title>routes/index.ts&#45;&gt;routes/imageRoutes.ts</title>
<path fill="none" stroke="#757575" d="M282.23,-1193.11C299.04,-1199.65 320.6,-1207.83 340,-1214.5 351.39,-1218.42 363.74,-1222.39 375.37,-1226.01"/>
<polygon fill="#757575" stroke="#757575" points="374.36,-1229.36 384.94,-1228.96 376.42,-1222.67 374.36,-1229.36"/>
</g>
<!-- routes/inquiryRoutes.ts -->
<g id="node39" class="node">
<title>routes/inquiryRoutes.ts</title>
<path fill="none" stroke="#c6c5fe" d="M494.83,-1015C494.83,-1015 355.17,-1015 355.17,-1015 351.33,-1015 347.5,-1011.17 347.5,-1007.33 347.5,-1007.33 347.5,-999.67 347.5,-999.67 347.5,-995.83 351.33,-992 355.17,-992 355.17,-992 494.83,-992 494.83,-992 498.67,-992 502.5,-995.83 502.5,-999.67 502.5,-999.67 502.5,-1007.33 502.5,-1007.33 502.5,-1011.17 498.67,-1015 494.83,-1015"/>
<text text-anchor="middle" x="425" y="-999.8" font-family="Arial" font-size="14.00" fill="#c6c5fe">routes/inquiryRoutes.ts</text>
</g>
<!-- routes/index.ts&#45;&gt;routes/inquiryRoutes.ts -->
<g id="edge74" class="edge">
<title>routes/index.ts&#45;&gt;routes/inquiryRoutes.ts</title>
<path fill="none" stroke="#757575" d="M258.45,-1169.66C270.3,-1144.93 300.55,-1087.06 340,-1050.5 353.5,-1037.99 370.93,-1027.54 386.41,-1019.7"/>
<polygon fill="#757575" stroke="#757575" points="388.29,-1022.68 395.75,-1015.16 385.23,-1016.39 388.29,-1022.68"/>
</g>
<!-- routes/messageRoutes.ts -->
<g id="node40" class="node">
<title>routes/messageRoutes.ts</title>
<path fill="none" stroke="#c6c5fe" d="M502.33,-847C502.33,-847 347.67,-847 347.67,-847 343.83,-847 340,-843.17 340,-839.33 340,-839.33 340,-831.67 340,-831.67 340,-827.83 343.83,-824 347.67,-824 347.67,-824 502.33,-824 502.33,-824 506.17,-824 510,-827.83 510,-831.67 510,-831.67 510,-839.33 510,-839.33 510,-843.17 506.17,-847 502.33,-847"/>
<text text-anchor="middle" x="425" y="-831.8" font-family="Arial" font-size="14.00" fill="#c6c5fe">routes/messageRoutes.ts</text>
</g>
<!-- routes/index.ts&#45;&gt;routes/messageRoutes.ts -->
<g id="edge75" class="edge">
<title>routes/index.ts&#45;&gt;routes/messageRoutes.ts</title>
<path fill="none" stroke="#757575" d="M254.56,-1169.79C260.23,-1130.43 282.55,-1000.44 340,-911.5 355.2,-887.97 379.49,-867.1 398.05,-853.21"/>
<polygon fill="#757575" stroke="#757575" points="400.35,-855.86 406.38,-847.15 396.23,-850.2 400.35,-855.86"/>
</g>
<!-- routes/profileRoutes.ts -->
<g id="node41" class="node">
<title>routes/profileRoutes.ts</title>
<path fill="none" stroke="#c6c5fe" d="M711.33,-1254C711.33,-1254 574.67,-1254 574.67,-1254 570.83,-1254 567,-1250.17 567,-1246.33 567,-1246.33 567,-1238.67 567,-1238.67 567,-1234.83 570.83,-1231 574.67,-1231 574.67,-1231 711.33,-1231 711.33,-1231 715.17,-1231 719,-1234.83 719,-1238.67 719,-1238.67 719,-1246.33 719,-1246.33 719,-1250.17 715.17,-1254 711.33,-1254"/>
<text text-anchor="middle" x="643" y="-1238.8" font-family="Arial" font-size="14.00" fill="#c6c5fe">routes/profileRoutes.ts</text>
</g>
<!-- routes/index.ts&#45;&gt;routes/profileRoutes.ts -->
<g id="edge76" class="edge">
<title>routes/index.ts&#45;&gt;routes/profileRoutes.ts</title>
<path fill="none" stroke="#757575" d="M304.26,-1188.68C356.17,-1196.05 438.75,-1208.03 510,-1219.5 528.79,-1222.52 549.04,-1225.97 567.91,-1229.25"/>
<polygon fill="#757575" stroke="#757575" points="567.48,-1232.72 577.94,-1231 568.69,-1225.83 567.48,-1232.72"/>
</g>
<!-- routes/propertyRoutes.ts -->
<g id="node42" class="node">
<title>routes/propertyRoutes.ts</title>
<path fill="none" stroke="#c6c5fe" d="M959.33,-1053C959.33,-1053 810.67,-1053 810.67,-1053 806.83,-1053 803,-1049.17 803,-1045.33 803,-1045.33 803,-1037.67 803,-1037.67 803,-1033.83 806.83,-1030 810.67,-1030 810.67,-1030 959.33,-1030 959.33,-1030 963.17,-1030 967,-1033.83 967,-1037.67 967,-1037.67 967,-1045.33 967,-1045.33 967,-1049.17 963.17,-1053 959.33,-1053"/>
<text text-anchor="middle" x="885" y="-1037.8" font-family="Arial" font-size="14.00" fill="#c6c5fe">routes/propertyRoutes.ts</text>
</g>
<!-- routes/index.ts&#45;&gt;routes/propertyRoutes.ts -->
<g id="edge77" class="edge">
<title>routes/index.ts&#45;&gt;routes/propertyRoutes.ts</title>
<path fill="none" stroke="#757575" d="M272.37,-1169.95C289.57,-1160.17 315.68,-1146.52 340,-1138.5 494.62,-1087.54 683.3,-1061.52 792.93,-1049.76"/>
<polygon fill="#757575" stroke="#757575" points="793.39,-1053.23 802.97,-1048.7 792.66,-1046.27 793.39,-1053.23"/>
</g>
<!-- routes/searchRoutes.ts -->
<g id="node43" class="node">
<title>routes/searchRoutes.ts</title>
<path fill="none" stroke="#c6c5fe" d="M954.83,-1174C954.83,-1174 815.17,-1174 815.17,-1174 811.33,-1174 807.5,-1170.17 807.5,-1166.33 807.5,-1166.33 807.5,-1158.67 807.5,-1158.67 807.5,-1154.83 811.33,-1151 815.17,-1151 815.17,-1151 954.83,-1151 954.83,-1151 958.67,-1151 962.5,-1154.83 962.5,-1158.67 962.5,-1158.67 962.5,-1166.33 962.5,-1166.33 962.5,-1170.17 958.67,-1174 954.83,-1174"/>
<text text-anchor="middle" x="885" y="-1158.8" font-family="Arial" font-size="14.00" fill="#c6c5fe">routes/searchRoutes.ts</text>
</g>
<!-- routes/index.ts&#45;&gt;routes/searchRoutes.ts -->
<g id="edge78" class="edge">
<title>routes/index.ts&#45;&gt;routes/searchRoutes.ts</title>
<path fill="none" stroke="#757575" d="M304.1,-1179.96C411.91,-1176.72 663.63,-1169.14 797.19,-1165.11"/>
<polygon fill="#757575" stroke="#757575" points="797.49,-1168.61 807.38,-1164.81 797.28,-1161.61 797.49,-1168.61"/>
</g>
<!-- routes/userRoutes.ts -->
<g id="node44" class="node">
<title>routes/userRoutes.ts</title>
<path fill="none" stroke="#c6c5fe" d="M705.83,-1372C705.83,-1372 580.17,-1372 580.17,-1372 576.33,-1372 572.5,-1368.17 572.5,-1364.33 572.5,-1364.33 572.5,-1356.67 572.5,-1356.67 572.5,-1352.83 576.33,-1349 580.17,-1349 580.17,-1349 705.83,-1349 705.83,-1349 709.67,-1349 713.5,-1352.83 713.5,-1356.67 713.5,-1356.67 713.5,-1364.33 713.5,-1364.33 713.5,-1368.17 709.67,-1372 705.83,-1372"/>
<text text-anchor="middle" x="643" y="-1356.8" font-family="Arial" font-size="14.00" fill="#c6c5fe">routes/userRoutes.ts</text>
</g>
<!-- routes/index.ts&#45;&gt;routes/userRoutes.ts -->
<g id="edge79" class="edge">
<title>routes/index.ts&#45;&gt;routes/userRoutes.ts</title>
<path fill="none" stroke="#757575" d="M258.27,-1193.15C269.59,-1216.76 298.58,-1270.19 340,-1296.5 407.09,-1339.13 497.81,-1353.84 562.26,-1358.68"/>
<polygon fill="#757575" stroke="#757575" points="562.16,-1362.18 572.37,-1359.38 562.64,-1355.2 562.16,-1362.18"/>
</g>
<!-- routes/usersRoutes.ts -->
<g id="node45" class="node">
<title>routes/usersRoutes.ts</title>
<path fill="none" stroke="#c6c5fe" d="M709.33,-1321C709.33,-1321 576.67,-1321 576.67,-1321 572.83,-1321 569,-1317.17 569,-1313.33 569,-1313.33 569,-1305.67 569,-1305.67 569,-1301.83 572.83,-1298 576.67,-1298 576.67,-1298 709.33,-1298 709.33,-1298 713.17,-1298 717,-1301.83 717,-1305.67 717,-1305.67 717,-1313.33 717,-1313.33 717,-1317.17 713.17,-1321 709.33,-1321"/>
<text text-anchor="middle" x="643" y="-1305.8" font-family="Arial" font-size="14.00" fill="#c6c5fe">routes/usersRoutes.ts</text>
</g>
<!-- routes/index.ts&#45;&gt;routes/usersRoutes.ts -->
<g id="edge80" class="edge">
<title>routes/index.ts&#45;&gt;routes/usersRoutes.ts</title>
<path fill="none" stroke="#757575" d="M261.98,-1193.15C276.36,-1210.89 306.37,-1244.29 340,-1260.5 408.9,-1293.7 495.83,-1305.05 558.71,-1308.63"/>
<polygon fill="#757575" stroke="#757575" points="558.82,-1312.14 568.98,-1309.16 559.18,-1305.15 558.82,-1312.14"/>
</g>
<!-- websocket/index.ts&#45;&gt;config/index.ts -->
<g id="edge126" class="edge">
<title>websocket/index.ts&#45;&gt;config/index.ts</title>
<path fill="none" stroke="#757575" d="M1211.12,-1753.46C1238.73,-1752.16 1270.8,-1750.65 1298,-1749.37"/>
<polygon fill="#757575" stroke="#757575" points="1298.34,-1752.86 1308.16,-1748.89 1298.01,-1745.87 1298.34,-1752.86"/>
</g>
<!-- websocket/index.ts&#45;&gt;utils/logger.ts -->
<g id="edge127" class="edge">
<title>websocket/index.ts&#45;&gt;utils/logger.ts</title>
<path fill="none" stroke="#757575" d="M1188.65,-1744.97C1213.63,-1735.91 1243.7,-1720.68 1261,-1696.5 1333.37,-1595.36 1354.16,-1186.86 1358.2,-1087.41"/>
<polygon fill="#757575" stroke="#757575" points="1361.7,-1087.45 1358.59,-1077.32 1354.7,-1087.18 1361.7,-1087.45"/>
</g>
<!-- config/database.ts -->
<g id="node9" class="node">
<title>config/database.ts</title>
<path fill="none" stroke="#cfffac" d="M1415.33,-1698C1415.33,-1698 1304.67,-1698 1304.67,-1698 1300.83,-1698 1297,-1694.17 1297,-1690.33 1297,-1690.33 1297,-1682.67 1297,-1682.67 1297,-1678.83 1300.83,-1675 1304.67,-1675 1304.67,-1675 1415.33,-1675 1415.33,-1675 1419.17,-1675 1423,-1678.83 1423,-1682.67 1423,-1682.67 1423,-1690.33 1423,-1690.33 1423,-1694.17 1419.17,-1698 1415.33,-1698"/>
<text text-anchor="middle" x="1360" y="-1682.8" font-family="Arial" font-size="14.00" fill="#cfffac">config/database.ts</text>
</g>
<!-- websocket/index.ts&#45;&gt;config/database.ts -->
<g id="edge125" class="edge">
<title>websocket/index.ts&#45;&gt;config/database.ts</title>
<path fill="none" stroke="#757575" d="M1207.73,-1744.95C1225.14,-1741.04 1243.99,-1736.19 1261,-1730.5 1283.85,-1722.86 1308.59,-1711.73 1327.5,-1702.57"/>
<polygon fill="#757575" stroke="#757575" points="1329.11,-1705.68 1336.54,-1698.13 1326.03,-1699.4 1329.11,-1705.68"/>
</g>
<!-- config/auth.ts -->
<g id="node8" class="node">
<title>config/auth.ts</title>
<path fill="none" stroke="#cfffac" d="M122.83,-1659C122.83,-1659 41.17,-1659 41.17,-1659 37.33,-1659 33.5,-1655.17 33.5,-1651.33 33.5,-1651.33 33.5,-1643.67 33.5,-1643.67 33.5,-1639.83 37.33,-1636 41.17,-1636 41.17,-1636 122.83,-1636 122.83,-1636 126.67,-1636 130.5,-1639.83 130.5,-1643.67 130.5,-1643.67 130.5,-1651.33 130.5,-1651.33 130.5,-1655.17 126.67,-1659 122.83,-1659"/>
<text text-anchor="middle" x="82" y="-1643.8" font-family="Arial" font-size="14.00" fill="#cfffac">config/auth.ts</text>
</g>
<!-- config/upload.ts -->
<g id="node10" class="node">
<title>config/upload.ts</title>
<path fill="none" stroke="#cfffac" d="M129.83,-1700C129.83,-1700 34.17,-1700 34.17,-1700 30.33,-1700 26.5,-1696.17 26.5,-1692.33 26.5,-1692.33 26.5,-1684.67 26.5,-1684.67 26.5,-1680.83 30.33,-1677 34.17,-1677 34.17,-1677 129.83,-1677 129.83,-1677 133.67,-1677 137.5,-1680.83 137.5,-1684.67 137.5,-1684.67 137.5,-1692.33 137.5,-1692.33 137.5,-1696.17 133.67,-1700 129.83,-1700"/>
<text text-anchor="middle" x="82" y="-1684.8" font-family="Arial" font-size="14.00" fill="#cfffac">config/upload.ts</text>
</g>
<!-- controllers/adminController.ts -->
<g id="node11" class="node">
<title>controllers/adminController.ts</title>
<path fill="none" stroke="#c6c5fe" d="M1233.83,-663C1233.83,-663 1057.17,-663 1057.17,-663 1053.33,-663 1049.5,-659.17 1049.5,-655.33 1049.5,-655.33 1049.5,-647.67 1049.5,-647.67 1049.5,-643.83 1053.33,-640 1057.17,-640 1057.17,-640 1233.83,-640 1233.83,-640 1237.67,-640 1241.5,-643.83 1241.5,-647.67 1241.5,-647.67 1241.5,-655.33 1241.5,-655.33 1241.5,-659.17 1237.67,-663 1233.83,-663"/>
<text text-anchor="middle" x="1145.5" y="-647.8" font-family="Arial" font-size="14.00" fill="#c6c5fe">controllers/adminController.ts</text>
</g>
<!-- controllers/adminController.ts&#45;&gt;utils/errors.ts -->
<g id="edge7" class="edge">
<title>controllers/adminController.ts&#45;&gt;utils/errors.ts</title>
<path fill="none" stroke="#757575" d="M1241.56,-660.45C1262.45,-662.41 1283.92,-664.43 1302.69,-666.2"/>
<polygon fill="#757575" stroke="#757575" points="1302.54,-669.7 1312.83,-667.15 1303.2,-662.73 1302.54,-669.7"/>
</g>
<!-- controllers/adminController.ts&#45;&gt;utils/logger.ts -->
<g id="edge8" class="edge">
<title>controllers/adminController.ts&#45;&gt;utils/logger.ts</title>
<path fill="none" stroke="#757575" d="M1241.7,-658.81C1248.75,-662.05 1255.32,-666.2 1261,-671.5 1316.8,-723.48 1348.29,-969.1 1356.7,-1043.86"/>
<polygon fill="#757575" stroke="#757575" points="1353.24,-1044.41 1357.81,-1053.97 1360.19,-1043.65 1353.24,-1044.41"/>
</g>
<!-- controllers/authController.ts -->
<g id="node12" class="node">
<title>controllers/authController.ts</title>
<path fill="none" stroke="#c6c5fe" d="M1228.33,-704C1228.33,-704 1062.67,-704 1062.67,-704 1058.83,-704 1055,-700.17 1055,-696.33 1055,-696.33 1055,-688.67 1055,-688.67 1055,-684.83 1058.83,-681 1062.67,-681 1062.67,-681 1228.33,-681 1228.33,-681 1232.17,-681 1236,-684.83 1236,-688.67 1236,-688.67 1236,-696.33 1236,-696.33 1236,-700.17 1232.17,-704 1228.33,-704"/>
<text text-anchor="middle" x="1145.5" y="-688.8" font-family="Arial" font-size="14.00" fill="#c6c5fe">controllers/authController.ts</text>
</g>
<!-- controllers/authController.ts&#45;&gt;utils/errors.ts -->
<g id="edge9" class="edge">
<title>controllers/authController.ts&#45;&gt;utils/errors.ts</title>
<path fill="none" stroke="#757575" d="M1236,-683.65C1258.61,-681.42 1282.26,-679.08 1302.71,-677.06"/>
<polygon fill="#757575" stroke="#757575" points="1303.17,-680.53 1312.78,-676.07 1302.48,-673.57 1303.17,-680.53"/>
</g>
<!-- controllers/authController.ts&#45;&gt;utils/logger.ts -->
<g id="edge10" class="edge">
<title>controllers/authController.ts&#45;&gt;utils/logger.ts</title>
<path fill="none" stroke="#757575" d="M1236.22,-697.77C1245.31,-701.22 1253.82,-705.99 1261,-712.5 1311.33,-758.13 1345.9,-973.38 1355.97,-1043.42"/>
<polygon fill="#757575" stroke="#757575" points="1352.56,-1044.3 1357.42,-1053.71 1359.49,-1043.32 1352.56,-1044.3"/>
</g>
<!-- controllers/dashboardController.ts -->
<g id="node13" class="node">
<title>controllers/dashboardController.ts</title>
<path fill="none" stroke="#c6c5fe" d="M986.33,-184C986.33,-184 783.67,-184 783.67,-184 779.83,-184 776,-180.17 776,-176.33 776,-176.33 776,-168.67 776,-168.67 776,-164.83 779.83,-161 783.67,-161 783.67,-161 986.33,-161 986.33,-161 990.17,-161 994,-164.83 994,-168.67 994,-168.67 994,-176.33 994,-176.33 994,-180.17 990.17,-184 986.33,-184"/>
<text text-anchor="middle" x="885" y="-168.8" font-family="Arial" font-size="14.00" fill="#c6c5fe">controllers/dashboardController.ts</text>
</g>
<!-- controllers/dashboardController.ts&#45;&gt;utils/errors.ts -->
<g id="edge12" class="edge">
<title>controllers/dashboardController.ts&#45;&gt;utils/errors.ts</title>
<path fill="none" stroke="#757575" d="M994.18,-161.07C1077.76,-158.53 1190.69,-169.79 1261,-236.5 1322.15,-294.52 1350.18,-568.65 1357.19,-649.2"/>
<polygon fill="#757575" stroke="#757575" points="1353.74,-649.96 1358.07,-659.63 1360.72,-649.37 1353.74,-649.96"/>
</g>
<!-- services/dashboardService.ts -->
<g id="node14" class="node">
<title>services/dashboardService.ts</title>
<path fill="none" stroke="#c6c5fe" d="M1234.33,-146C1234.33,-146 1056.67,-146 1056.67,-146 1052.83,-146 1049,-142.17 1049,-138.33 1049,-138.33 1049,-130.67 1049,-130.67 1049,-126.83 1052.83,-123 1056.67,-123 1056.67,-123 1234.33,-123 1234.33,-123 1238.17,-123 1242,-126.83 1242,-130.67 1242,-130.67 1242,-138.33 1242,-138.33 1242,-142.17 1238.17,-146 1234.33,-146"/>
<text text-anchor="middle" x="1145.5" y="-130.8" font-family="Arial" font-size="14.00" fill="#c6c5fe">services/dashboardService.ts</text>
</g>
<!-- controllers/dashboardController.ts&#45;&gt;services/dashboardService.ts -->
<g id="edge11" class="edge">
<title>controllers/dashboardController.ts&#45;&gt;services/dashboardService.ts</title>
<path fill="none" stroke="#757575" d="M964.26,-161C993.23,-156.74 1026.27,-151.88 1056.08,-147.5"/>
<polygon fill="#757575" stroke="#757575" points="1056.68,-150.95 1066.06,-146.03 1055.66,-144.02 1056.68,-150.95"/>
</g>
<!-- services/dashboardService.ts&#45;&gt;utils/errors.ts -->
<g id="edge107" class="edge">
<title>services/dashboardService.ts&#45;&gt;utils/errors.ts</title>
<path fill="none" stroke="#757575" d="M1183.84,-146.07C1209.44,-155.94 1242.08,-172.7 1261,-198.5 1315.4,-272.69 1348.54,-567.17 1356.9,-649.83"/>
<polygon fill="#757575" stroke="#757575" points="1353.42,-650.23 1357.9,-659.84 1360.39,-649.54 1353.42,-650.23"/>
</g>
<!-- types/user.ts -->
<g id="node20" class="node">
<title>types/user.ts</title>
<path fill="none" stroke="#cfffac" d="M1398.33,-166C1398.33,-166 1321.67,-166 1321.67,-166 1317.83,-166 1314,-162.17 1314,-158.33 1314,-158.33 1314,-150.67 1314,-150.67 1314,-146.83 1317.83,-143 1321.67,-143 1321.67,-143 1398.33,-143 1398.33,-143 1402.17,-143 1406,-146.83 1406,-150.67 1406,-150.67 1406,-158.33 1406,-158.33 1406,-162.17 1402.17,-166 1398.33,-166"/>
<text text-anchor="middle" x="1360" y="-150.8" font-family="Arial" font-size="14.00" fill="#cfffac">types/user.ts</text>
</g>
<!-- services/dashboardService.ts&#45;&gt;types/user.ts -->
<g id="edge106" class="edge">
<title>services/dashboardService.ts&#45;&gt;types/user.ts</title>
<path fill="none" stroke="#757575" d="M1242.18,-143.51C1263.28,-145.49 1284.94,-147.53 1303.79,-149.3"/>
<polygon fill="#757575" stroke="#757575" points="1303.67,-152.81 1313.95,-150.26 1304.33,-145.84 1303.67,-152.81"/>
</g>
<!-- controllers/healthController.ts&#45;&gt;config/index.ts -->
<g id="edge13" class="edge">
<title>controllers/healthController.ts&#45;&gt;config/index.ts</title>
<path fill="none" stroke="#757575" d="M1186.86,-1528.07C1211.63,-1537.16 1242.12,-1552.23 1261,-1575.5 1299.04,-1622.39 1261.28,-1657.82 1297,-1706.5 1303.9,-1715.91 1313.75,-1723.69 1323.56,-1729.8"/>
<polygon fill="#757575" stroke="#757575" points="1322.07,-1732.99 1332.48,-1734.95 1325.57,-1726.92 1322.07,-1732.99"/>
</g>
<!-- controllers/healthController.ts&#45;&gt;utils/errors.ts -->
<g id="edge14" class="edge">
<title>controllers/healthController.ts&#45;&gt;utils/errors.ts</title>
<path fill="none" stroke="#757575" d="M1156.97,-1504.91C1180.23,-1478.41 1236.12,-1410.41 1261,-1342.5 1306.89,-1217.23 1278.06,-1176.56 1297,-1044.5 1316.22,-910.48 1344.72,-750.3 1355.06,-693.1"/>
<polygon fill="#757575" stroke="#757575" points="1358.54,-693.54 1356.88,-683.07 1351.65,-692.29 1358.54,-693.54"/>
</g>
<!-- controllers/healthController.ts&#45;&gt;utils/logger.ts -->
<g id="edge15" class="edge">
<title>controllers/healthController.ts&#45;&gt;utils/logger.ts</title>
<path fill="none" stroke="#757575" d="M1240.33,-1504.91C1247.95,-1501.19 1255.01,-1496.47 1261,-1490.5 1319.4,-1432.29 1349.36,-1165.53 1357.01,-1087.19"/>
<polygon fill="#757575" stroke="#757575" points="1360.51,-1087.33 1357.97,-1077.05 1353.54,-1086.67 1360.51,-1087.33"/>
</g>
<!-- controllers/imageController.ts -->
<g id="node16" class="node">
<title>controllers/imageController.ts</title>
<path fill="none" stroke="#c6c5fe" d="M973.33,-499C973.33,-499 796.67,-499 796.67,-499 792.83,-499 789,-495.17 789,-491.33 789,-491.33 789,-483.67 789,-483.67 789,-479.83 792.83,-476 796.67,-476 796.67,-476 973.33,-476 973.33,-476 977.17,-476 981,-479.83 981,-483.67 981,-483.67 981,-491.33 981,-491.33 981,-495.17 977.17,-499 973.33,-499"/>
<text text-anchor="middle" x="885" y="-483.8" font-family="Arial" font-size="14.00" fill="#c6c5fe">controllers/imageController.ts</text>
</g>
<!-- controllers/imageController.ts&#45;&gt;utils/errors.ts -->
<g id="edge17" class="edge">
<title>controllers/imageController.ts&#45;&gt;utils/errors.ts</title>
<path fill="none" stroke="#757575" d="M896.52,-476C918.56,-452.86 972.34,-401.29 1030,-382.5 1127.61,-350.69 1177.56,-322.69 1261,-382.5 1349.63,-446.03 1359.09,-594.21 1359.4,-649.86"/>
<polygon fill="#757575" stroke="#757575" points="1355.9,-649.98 1359.35,-659.99 1362.9,-650.01 1355.9,-649.98"/>
</g>
<!-- controllers/imageController.ts&#45;&gt;utils/logger.ts -->
<g id="edge18" class="edge">
<title>controllers/imageController.ts&#45;&gt;utils/logger.ts</title>
<path fill="none" stroke="#757575" d="M894.03,-499.13C912.97,-526.89 961.32,-599.54 994,-664.5 1013.18,-702.62 996.74,-726.78 1030,-753.5 1111.17,-818.71 1181.14,-725.69 1261,-792.5 1339.44,-858.13 1355.1,-991.45 1358.22,-1043.75"/>
<polygon fill="#757575" stroke="#757575" points="1354.74,-1044.08 1358.73,-1053.9 1361.73,-1043.73 1354.74,-1044.08"/>
</g>
<!-- services/uploadService.ts -->
<g id="node17" class="node">
<title>services/uploadService.ts</title>
<path fill="none" stroke="#c6c5fe" d="M1222.83,-499C1222.83,-499 1068.17,-499 1068.17,-499 1064.33,-499 1060.5,-495.17 1060.5,-491.33 1060.5,-491.33 1060.5,-483.67 1060.5,-483.67 1060.5,-479.83 1064.33,-476 1068.17,-476 1068.17,-476 1222.83,-476 1222.83,-476 1226.67,-476 1230.5,-479.83 1230.5,-483.67 1230.5,-483.67 1230.5,-491.33 1230.5,-491.33 1230.5,-495.17 1226.67,-499 1222.83,-499"/>
<text text-anchor="middle" x="1145.5" y="-483.8" font-family="Arial" font-size="14.00" fill="#c6c5fe">services/uploadService.ts</text>
</g>
<!-- controllers/imageController.ts&#45;&gt;services/uploadService.ts -->
<g id="edge16" class="edge">
<title>controllers/imageController.ts&#45;&gt;services/uploadService.ts</title>
<path fill="none" stroke="#757575" d="M981.15,-487.5C1003.63,-487.5 1027.58,-487.5 1050.02,-487.5"/>
<polygon fill="#757575" stroke="#757575" points="1050.21,-491 1060.21,-487.5 1050.21,-484 1050.21,-491"/>
</g>
<!-- services/uploadService.ts&#45;&gt;utils/errors.ts -->
<g id="edge116" class="edge">
<title>services/uploadService.ts&#45;&gt;utils/errors.ts</title>
<path fill="none" stroke="#757575" d="M1230.5,-493.49C1241.36,-496.7 1251.86,-501.21 1261,-507.5 1312.02,-542.59 1340.74,-613.72 1352.56,-649.66"/>
<polygon fill="#757575" stroke="#757575" points="1349.35,-651.12 1355.69,-659.61 1356.02,-649.02 1349.35,-651.12"/>
</g>
<!-- services/uploadService.ts&#45;&gt;utils/logger.ts -->
<g id="edge117" class="edge">
<title>services/uploadService.ts&#45;&gt;utils/logger.ts</title>
<path fill="none" stroke="#757575" d="M1230.59,-489.85C1241.96,-493.49 1252.58,-499.09 1261,-507.5 1265.9,-512.4 1338.24,-941.8 1355.38,-1043.9"/>
<polygon fill="#757575" stroke="#757575" points="1351.96,-1044.68 1357.07,-1053.96 1358.86,-1043.52 1351.96,-1044.68"/>
</g>
<!-- controllers/inquiryController.ts -->
<g id="node18" class="node">
<title>controllers/inquiryController.ts</title>
<path fill="none" stroke="#c6c5fe" d="M732.33,-747C732.33,-747 553.67,-747 553.67,-747 549.83,-747 546,-743.17 546,-739.33 546,-739.33 546,-731.67 546,-731.67 546,-727.83 549.83,-724 553.67,-724 553.67,-724 732.33,-724 732.33,-724 736.17,-724 740,-727.83 740,-731.67 740,-731.67 740,-739.33 740,-739.33 740,-743.17 736.17,-747 732.33,-747"/>
<text text-anchor="middle" x="643" y="-731.8" font-family="Arial" font-size="14.00" fill="#c6c5fe">controllers/inquiryController.ts</text>
</g>
<!-- controllers/inquiryController.ts&#45;&gt;utils/errors.ts -->
<g id="edge21" class="edge">
<title>controllers/inquiryController.ts&#45;&gt;utils/errors.ts</title>
<path fill="none" stroke="#757575" d="M646.75,-723.93C656.91,-683.36 696.03,-545.8 776,-466.5 864.93,-378.32 907.89,-372.31 1030,-344.5 1130.1,-321.71 1178.64,-283.2 1261,-344.5 1311.45,-382.05 1345.6,-582.07 1355.81,-649.38"/>
<polygon fill="#757575" stroke="#757575" points="1352.41,-650.29 1357.34,-659.67 1359.33,-649.26 1352.41,-650.29"/>
</g>
<!-- controllers/inquiryController.ts&#45;&gt;utils/logger.ts -->
<g id="edge22" class="edge">
<title>controllers/inquiryController.ts&#45;&gt;utils/logger.ts</title>
<path fill="none" stroke="#757575" d="M688.89,-747.01C757.29,-765.56 890.54,-805.71 994,-861.5 1011.6,-870.99 1011.89,-880.01 1030,-888.5 1125.55,-933.32 1171.8,-887.09 1261,-943.5 1301.49,-969.11 1332.7,-1017.32 1348.2,-1044.85"/>
<polygon fill="#757575" stroke="#757575" points="1345.32,-1046.88 1353.19,-1053.98 1351.46,-1043.52 1345.32,-1046.88"/>
</g>
<!-- services/inquiryService.ts -->
<g id="node19" class="node">
<title>services/inquiryService.ts</title>
<path fill="none" stroke="#c6c5fe" d="M961.83,-697C961.83,-697 808.17,-697 808.17,-697 804.33,-697 800.5,-693.17 800.5,-689.33 800.5,-689.33 800.5,-681.67 800.5,-681.67 800.5,-677.83 804.33,-674 808.17,-674 808.17,-674 961.83,-674 961.83,-674 965.67,-674 969.5,-677.83 969.5,-681.67 969.5,-681.67 969.5,-689.33 969.5,-689.33 969.5,-693.17 965.67,-697 961.83,-697"/>
<text text-anchor="middle" x="885" y="-681.8" font-family="Arial" font-size="14.00" fill="#c6c5fe">services/inquiryService.ts</text>
</g>
<!-- controllers/inquiryController.ts&#45;&gt;services/inquiryService.ts -->
<g id="edge19" class="edge">
<title>controllers/inquiryController.ts&#45;&gt;services/inquiryService.ts</title>
<path fill="none" stroke="#757575" d="M699.36,-723.97C734.94,-716.55 781.33,-706.89 818.71,-699.1"/>
<polygon fill="#757575" stroke="#757575" points="819.43,-702.53 828.5,-697.06 818,-695.68 819.43,-702.53"/>
</g>
<!-- controllers/inquiryController.ts&#45;&gt;types/user.ts -->
<g id="edge20" class="edge">
<title>controllers/inquiryController.ts&#45;&gt;types/user.ts</title>
<path fill="none" stroke="#757575" d="M644.41,-723.81C646.87,-672.04 663.7,-461.05 776,-349.5 924.88,-201.62 1188.96,-165.87 1303.47,-157.24"/>
<polygon fill="#757575" stroke="#757575" points="1304.02,-160.71 1313.75,-156.51 1303.52,-153.73 1304.02,-160.71"/>
</g>
<!-- services/inquiryService.ts&#45;&gt;utils/errors.ts -->
<g id="edge109" class="edge">
<title>services/inquiryService.ts&#45;&gt;utils/errors.ts</title>
<path fill="none" stroke="#757575" d="M893.89,-673.73C912.55,-645.66 960.31,-572.28 994,-507.5 1012.36,-472.19 996.68,-447.26 1030,-425.5 1115.96,-369.36 1176.03,-367.88 1261,-425.5 1337.59,-477.43 1354.32,-599.77 1357.98,-649.7"/>
<polygon fill="#757575" stroke="#757575" points="1354.49,-649.96 1358.6,-659.73 1361.47,-649.53 1354.49,-649.96"/>
</g>
<!-- services/inquiryService.ts&#45;&gt;utils/logger.ts -->
<g id="edge110" class="edge">
<title>services/inquiryService.ts&#45;&gt;utils/logger.ts</title>
<path fill="none" stroke="#757575" d="M894.38,-697.26C914.62,-724.86 969.04,-794.42 1030,-833.5 1121.71,-892.3 1175.38,-848.14 1261,-915.5 1305.78,-950.73 1336.65,-1012.34 1350.59,-1044.54"/>
<polygon fill="#757575" stroke="#757575" points="1347.42,-1046.03 1354.52,-1053.89 1353.87,-1043.32 1347.42,-1046.03"/>
</g>
<!-- services/messageService.ts -->
<g id="node48" class="node">
<title>services/messageService.ts</title>
<path fill="none" stroke="#c6c5fe" d="M1230.33,-581C1230.33,-581 1060.67,-581 1060.67,-581 1056.83,-581 1053,-577.17 1053,-573.33 1053,-573.33 1053,-565.67 1053,-565.67 1053,-561.83 1056.83,-558 1060.67,-558 1060.67,-558 1230.33,-558 1230.33,-558 1234.17,-558 1238,-561.83 1238,-565.67 1238,-565.67 1238,-573.33 1238,-573.33 1238,-577.17 1234.17,-581 1230.33,-581"/>
<text text-anchor="middle" x="1145.5" y="-565.8" font-family="Arial" font-size="14.00" fill="#c6c5fe">services/messageService.ts</text>
</g>
<!-- services/inquiryService.ts&#45;&gt;services/messageService.ts -->
<g id="edge108" class="edge">
<title>services/inquiryService.ts&#45;&gt;services/messageService.ts</title>
<path fill="none" stroke="#757575" d="M899.21,-673.87C923.35,-653.31 976.99,-610.7 1030,-589.5 1035.34,-587.36 1040.91,-585.46 1046.6,-583.75"/>
<polygon fill="#757575" stroke="#757575" points="1047.55,-587.12 1056.25,-581.07 1045.68,-580.37 1047.55,-587.12"/>
</g>
<!-- controllers/inquiryFunctions.ts -->
<g id="node21" class="node">
<title>controllers/inquiryFunctions.ts</title>
<path fill="none" stroke="#c6c5fe" d="M1235.33,-302C1235.33,-302 1055.67,-302 1055.67,-302 1051.83,-302 1048,-298.17 1048,-294.33 1048,-294.33 1048,-286.67 1048,-286.67 1048,-282.83 1051.83,-279 1055.67,-279 1055.67,-279 1235.33,-279 1235.33,-279 1239.17,-279 1243,-282.83 1243,-286.67 1243,-286.67 1243,-294.33 1243,-294.33 1243,-298.17 1239.17,-302 1235.33,-302"/>
<text text-anchor="middle" x="1145.5" y="-286.8" font-family="Arial" font-size="14.00" fill="#c6c5fe">controllers/inquiryFunctions.ts</text>
</g>
<!-- controllers/inquiryFunctions.ts&#45;&gt;utils/errors.ts -->
<g id="edge24" class="edge">
<title>controllers/inquiryFunctions.ts&#45;&gt;utils/errors.ts</title>
<path fill="none" stroke="#757575" d="M1239.51,-302.1C1247.39,-305.8 1254.73,-310.52 1261,-316.5 1310.39,-363.66 1345.59,-579.28 1355.89,-649.4"/>
<polygon fill="#757575" stroke="#757575" points="1352.49,-650.31 1357.38,-659.7 1359.41,-649.31 1352.49,-650.31"/>
</g>
<!-- controllers/inquiryFunctions.ts&#45;&gt;utils/logger.ts -->
<g id="edge25" class="edge">
<title>controllers/inquiryFunctions.ts&#45;&gt;utils/logger.ts</title>
<path fill="none" stroke="#757575" d="M1160.67,-302.16C1185.68,-323.63 1237.25,-372.16 1261,-425.5 1309.53,-534.48 1279.24,-573.53 1297,-691.5 1317.21,-825.73 1345.1,-986.43 1355.17,-1043.82"/>
<polygon fill="#757575" stroke="#757575" points="1351.77,-1044.64 1356.95,-1053.89 1358.66,-1043.43 1351.77,-1044.64"/>
</g>
<!-- controllers/inquiryFunctions.ts&#45;&gt;types/user.ts -->
<g id="edge23" class="edge">
<title>controllers/inquiryFunctions.ts&#45;&gt;types/user.ts</title>
<path fill="none" stroke="#757575" d="M1164.62,-278.9C1202.1,-254.92 1288.31,-199.74 1332.23,-171.63"/>
<polygon fill="#757575" stroke="#757575" points="1334.39,-174.4 1340.93,-166.07 1330.62,-168.51 1334.39,-174.4"/>
</g>
<!-- controllers/messageController.ts -->
<g id="node22" class="node">
<title>controllers/messageController.ts</title>
<path fill="none" stroke="#c6c5fe" d="M1242.83,-458C1242.83,-458 1048.17,-458 1048.17,-458 1044.33,-458 1040.5,-454.17 1040.5,-450.33 1040.5,-450.33 1040.5,-442.67 1040.5,-442.67 1040.5,-438.83 1044.33,-435 1048.17,-435 1048.17,-435 1242.83,-435 1242.83,-435 1246.67,-435 1250.5,-438.83 1250.5,-442.67 1250.5,-442.67 1250.5,-450.33 1250.5,-450.33 1250.5,-454.17 1246.67,-458 1242.83,-458"/>
<text text-anchor="middle" x="1145.5" y="-442.8" font-family="Arial" font-size="14.00" fill="#c6c5fe">controllers/messageController.ts</text>
</g>
<!-- controllers/messageController.ts&#45;&gt;utils/errors.ts -->
<g id="edge26" class="edge">
<title>controllers/messageController.ts&#45;&gt;utils/errors.ts</title>
<path fill="none" stroke="#757575" d="M1247.3,-458.11C1252.13,-460.49 1256.74,-463.27 1261,-466.5 1322.17,-512.89 1346.97,-607.22 1355.35,-649.79"/>
<polygon fill="#757575" stroke="#757575" points="1351.96,-650.7 1357.22,-659.89 1358.84,-649.42 1351.96,-650.7"/>
</g>
<!-- controllers/messageController.ts&#45;&gt;utils/logger.ts -->
<g id="edge27" class="edge">
<title>controllers/messageController.ts&#45;&gt;utils/logger.ts</title>
<path fill="none" stroke="#757575" d="M1250.55,-457.99C1254.3,-460.45 1257.81,-463.27 1261,-466.5 1296.55,-502.56 1288.86,-641.52 1297,-691.5 1318.82,-825.48 1345.73,-986.34 1355.36,-1043.8"/>
<polygon fill="#757575" stroke="#757575" points="1351.94,-1044.59 1357.05,-1053.87 1358.85,-1043.43 1351.94,-1044.59"/>
</g>
<!-- controllers/propertyController.ts -->
<g id="node23" class="node">
<title>controllers/propertyController.ts</title>
<path fill="none" stroke="#c6c5fe" d="M1239.83,-745C1239.83,-745 1051.17,-745 1051.17,-745 1047.33,-745 1043.5,-741.17 1043.5,-737.33 1043.5,-737.33 1043.5,-729.67 1043.5,-729.67 1043.5,-725.83 1047.33,-722 1051.17,-722 1051.17,-722 1239.83,-722 1239.83,-722 1243.67,-722 1247.5,-725.83 1247.5,-729.67 1247.5,-729.67 1247.5,-737.33 1247.5,-737.33 1247.5,-741.17 1243.67,-745 1239.83,-745"/>
<text text-anchor="middle" x="1145.5" y="-729.8" font-family="Arial" font-size="14.00" fill="#c6c5fe">controllers/propertyController.ts</text>
</g>
<!-- controllers/propertyController.ts&#45;&gt;config/index.ts -->
<g id="edge28" class="edge">
<title>controllers/propertyController.ts&#45;&gt;config/index.ts</title>
<path fill="none" stroke="#757575" d="M1192.8,-745.1C1217.44,-753.84 1245.74,-768.55 1261,-792.5 1315.6,-878.22 1246.62,-1618.23 1297,-1706.5 1302.54,-1716.21 1311.51,-1723.95 1320.93,-1729.93"/>
<polygon fill="#757575" stroke="#757575" points="1319.2,-1732.98 1329.62,-1734.94 1322.7,-1726.91 1319.2,-1732.98"/>
</g>
<!-- controllers/propertyController.ts&#45;&gt;utils/errors.ts -->
<g id="edge30" class="edge">
<title>controllers/propertyController.ts&#45;&gt;utils/errors.ts</title>
<path fill="none" stroke="#757575" d="M1222.19,-722C1235.25,-719.34 1248.6,-716.18 1261,-712.5 1283.28,-705.88 1307.38,-695.84 1326.1,-687.35"/>
<polygon fill="#757575" stroke="#757575" points="1327.75,-690.45 1335.36,-683.08 1324.81,-684.09 1327.75,-690.45"/>
</g>
<!-- controllers/propertyController.ts&#45;&gt;utils/logger.ts -->
<g id="edge31" class="edge">
<title>controllers/propertyController.ts&#45;&gt;utils/logger.ts</title>
<path fill="none" stroke="#757575" d="M1238.7,-745.12C1246.84,-748.8 1254.46,-753.51 1261,-759.5 1345.62,-837.09 1357.52,-987.71 1358.93,-1043.78"/>
<polygon fill="#757575" stroke="#757575" points="1355.44,-1044.03 1359.1,-1053.97 1362.44,-1043.91 1355.44,-1044.03"/>
</g>
<!-- controllers/propertyController.ts&#45;&gt;types/user.ts -->
<g id="edge29" class="edge">
<title>controllers/propertyController.ts&#45;&gt;types/user.ts</title>
<path fill="none" stroke="#757575" d="M1247.7,-722.76C1252.53,-719.91 1257.01,-716.52 1261,-712.5 1338.15,-634.76 1355.24,-269.97 1358.37,-176.41"/>
<polygon fill="#757575" stroke="#757575" points="1361.88,-176.26 1358.7,-166.16 1354.88,-176.04 1361.88,-176.26"/>
</g>
<!-- controllers/searchController.ts -->
<g id="node24" class="node">
<title>controllers/searchController.ts</title>
<path fill="none" stroke="#c6c5fe" d="M1235.33,-1175C1235.33,-1175 1055.67,-1175 1055.67,-1175 1051.83,-1175 1048,-1171.17 1048,-1167.33 1048,-1167.33 1048,-1159.67 1048,-1159.67 1048,-1155.83 1051.83,-1152 1055.67,-1152 1055.67,-1152 1235.33,-1152 1235.33,-1152 1239.17,-1152 1243,-1155.83 1243,-1159.67 1243,-1159.67 1243,-1167.33 1243,-1167.33 1243,-1171.17 1239.17,-1175 1235.33,-1175"/>
<text text-anchor="middle" x="1145.5" y="-1159.8" font-family="Arial" font-size="14.00" fill="#c6c5fe">controllers/searchController.ts</text>
</g>
<!-- controllers/searchController.ts&#45;&gt;utils/logger.ts -->
<g id="edge32" class="edge">
<title>controllers/searchController.ts&#45;&gt;utils/logger.ts</title>
<path fill="none" stroke="#757575" d="M1218.23,-1151.96C1232.75,-1148.32 1247.65,-1143.6 1261,-1137.5 1290.78,-1123.9 1320.43,-1100.36 1339.19,-1083.91"/>
<polygon fill="#757575" stroke="#757575" points="1341.65,-1086.41 1346.77,-1077.13 1336.98,-1081.19 1341.65,-1086.41"/>
</g>
<!-- controllers/userController.ts -->
<g id="node25" class="node">
<title>controllers/userController.ts</title>
<path fill="none" stroke="#c6c5fe" d="M967.83,-1372C967.83,-1372 802.17,-1372 802.17,-1372 798.33,-1372 794.5,-1368.17 794.5,-1364.33 794.5,-1364.33 794.5,-1356.67 794.5,-1356.67 794.5,-1352.83 798.33,-1349 802.17,-1349 802.17,-1349 967.83,-1349 967.83,-1349 971.67,-1349 975.5,-1352.83 975.5,-1356.67 975.5,-1356.67 975.5,-1364.33 975.5,-1364.33 975.5,-1368.17 971.67,-1372 967.83,-1372"/>
<text text-anchor="middle" x="885" y="-1356.8" font-family="Arial" font-size="14.00" fill="#c6c5fe">controllers/userController.ts</text>
</g>
<!-- controllers/userController.ts&#45;&gt;utils/errors.ts -->
<g id="edge34" class="edge">
<title>controllers/userController.ts&#45;&gt;utils/errors.ts</title>
<path fill="none" stroke="#757575" d="M928.07,-1348.94C949.44,-1341.57 974.87,-1330.38 994,-1314.5 1016.2,-1296.08 1007.08,-1278.01 1030,-1260.5 1116,-1194.81 1189.72,-1264.93 1261,-1183.5 1277.67,-1164.46 1340.01,-787.93 1355.5,-693.06"/>
<polygon fill="#757575" stroke="#757575" points="1358.96,-693.58 1357.11,-683.15 1352.05,-692.46 1358.96,-693.58"/>
</g>
<!-- controllers/userController.ts&#45;&gt;utils/logger.ts -->
<g id="edge35" class="edge">
<title>controllers/userController.ts&#45;&gt;utils/logger.ts</title>
<path fill="none" stroke="#757575" d="M975.92,-1367.33C1072.36,-1372.76 1217.52,-1374.83 1261,-1342.5 1344.7,-1280.27 1357.21,-1140.75 1358.86,-1087.1"/>
<polygon fill="#757575" stroke="#757575" points="1362.36,-1087.08 1359.07,-1077.01 1355.36,-1086.93 1362.36,-1087.08"/>
</g>
<!-- services/userService.ts -->
<g id="node26" class="node">
<title>services/userService.ts</title>
<path fill="none" stroke="#c6c5fe" d="M1215.33,-1293C1215.33,-1293 1075.67,-1293 1075.67,-1293 1071.83,-1293 1068,-1289.17 1068,-1285.33 1068,-1285.33 1068,-1277.67 1068,-1277.67 1068,-1273.83 1071.83,-1270 1075.67,-1270 1075.67,-1270 1215.33,-1270 1215.33,-1270 1219.17,-1270 1223,-1273.83 1223,-1277.67 1223,-1277.67 1223,-1285.33 1223,-1285.33 1223,-1289.17 1219.17,-1293 1215.33,-1293"/>
<text text-anchor="middle" x="1145.5" y="-1277.8" font-family="Arial" font-size="14.00" fill="#c6c5fe">services/userService.ts</text>
</g>
<!-- controllers/userController.ts&#45;&gt;services/userService.ts -->
<g id="edge33" class="edge">
<title>controllers/userController.ts&#45;&gt;services/userService.ts</title>
<path fill="none" stroke="#757575" d="M956.46,-1349C969.38,-1345.38 982.42,-1340.66 994,-1334.5 1013.16,-1324.3 1010.53,-1311.09 1030,-1301.5 1038.76,-1297.19 1048.29,-1293.79 1058,-1291.12"/>
<polygon fill="#757575" stroke="#757575" points="1058.9,-1294.5 1067.75,-1288.68 1057.2,-1287.71 1058.9,-1294.5"/>
</g>
<!-- services/userService.ts&#45;&gt;config/index.ts -->
<g id="edge118" class="edge">
<title>services/userService.ts&#45;&gt;config/index.ts</title>
<path fill="none" stroke="#757575" d="M1223.1,-1280.92C1237.44,-1284.37 1251.03,-1290.65 1261,-1301.5 1322.14,-1368.03 1250.29,-1629.15 1297,-1706.5 1302.83,-1716.15 1311.98,-1723.9 1321.49,-1729.91"/>
<polygon fill="#757575" stroke="#757575" points="1319.81,-1732.98 1330.22,-1734.94 1323.3,-1726.92 1319.81,-1732.98"/>
</g>
<!-- services/userService.ts&#45;&gt;utils/errors.ts -->
<g id="edge119" class="edge">
<title>services/userService.ts&#45;&gt;utils/errors.ts</title>
<path fill="none" stroke="#757575" d="M1223.01,-1277.14C1237.27,-1272.99 1250.85,-1266.24 1261,-1255.5 1262.25,-1254.18 1337.84,-799.02 1355.39,-693.27"/>
<polygon fill="#757575" stroke="#757575" points="1358.89,-693.57 1357.07,-683.14 1351.98,-692.43 1358.89,-693.57"/>
</g>
<!-- services/userService.ts&#45;&gt;utils/logger.ts -->
<g id="edge120" class="edge">
<title>services/userService.ts&#45;&gt;utils/logger.ts</title>
<path fill="none" stroke="#757575" d="M1223.03,-1273.85C1236.63,-1269.89 1249.96,-1264.05 1261,-1255.5 1317.33,-1211.88 1344.28,-1126.85 1354.24,-1087.04"/>
<polygon fill="#757575" stroke="#757575" points="1357.7,-1087.62 1356.61,-1077.08 1350.89,-1086 1357.7,-1087.62"/>
</g>
<!-- middleware/authMiddleware.ts -->
<g id="node27" class="node">
<title>middleware/authMiddleware.ts</title>
<path fill="none" stroke="#c6c5fe" d="M1237.83,-1057C1237.83,-1057 1053.17,-1057 1053.17,-1057 1049.33,-1057 1045.5,-1053.17 1045.5,-1049.33 1045.5,-1049.33 1045.5,-1041.67 1045.5,-1041.67 1045.5,-1037.83 1049.33,-1034 1053.17,-1034 1053.17,-1034 1237.83,-1034 1237.83,-1034 1241.67,-1034 1245.5,-1037.83 1245.5,-1041.67 1245.5,-1041.67 1245.5,-1049.33 1245.5,-1049.33 1245.5,-1053.17 1241.67,-1057 1237.83,-1057"/>
<text text-anchor="middle" x="1145.5" y="-1041.8" font-family="Arial" font-size="14.00" fill="#c6c5fe">middleware/authMiddleware.ts</text>
</g>
<!-- middleware/authMiddleware.ts&#45;&gt;config/index.ts -->
<g id="edge36" class="edge">
<title>middleware/authMiddleware.ts&#45;&gt;config/index.ts</title>
<path fill="none" stroke="#757575" d="M1168.89,-1057.05C1196.1,-1072.44 1240.87,-1102.46 1261,-1142.5 1317.41,-1254.71 1233.43,-1598.19 1297,-1706.5 1302.66,-1716.14 1311.67,-1723.86 1321.08,-1729.84"/>
<polygon fill="#757575" stroke="#757575" points="1319.35,-1732.88 1329.76,-1734.86 1322.85,-1726.82 1319.35,-1732.88"/>
</g>
<!-- middleware/authMiddleware.ts&#45;&gt;utils/errors.ts -->
<g id="edge38" class="edge">
<title>middleware/authMiddleware.ts&#45;&gt;utils/errors.ts</title>
<path fill="none" stroke="#757575" d="M1158.22,-1033.67C1180.56,-1010.64 1229.79,-957.44 1261,-905.5 1305.14,-832.05 1338.79,-735.08 1352.4,-692.77"/>
<polygon fill="#757575" stroke="#757575" points="1355.81,-693.61 1355.5,-683.02 1349.14,-691.49 1355.81,-693.61"/>
</g>
<!-- middleware/authMiddleware.ts&#45;&gt;utils/logger.ts -->
<g id="edge39" class="edge">
<title>middleware/authMiddleware.ts&#45;&gt;utils/logger.ts</title>
<path fill="none" stroke="#757575" d="M1245.6,-1054.83C1265.04,-1056.66 1284.81,-1058.52 1302.28,-1060.16"/>
<polygon fill="#757575" stroke="#757575" points="1301.99,-1063.65 1312.28,-1061.1 1302.65,-1056.68 1301.99,-1063.65"/>
</g>
<!-- middleware/authMiddleware.ts&#45;&gt;types/user.ts -->
<g id="edge37" class="edge">
<title>middleware/authMiddleware.ts&#45;&gt;types/user.ts</title>
<path fill="none" stroke="#757575" d="M1154.8,-1033.76C1176.29,-1002.73 1233.95,-915.32 1261,-833.5 1282.21,-769.33 1342.84,-285.22 1356.32,-176.24"/>
<polygon fill="#757575" stroke="#757575" points="1359.82,-176.47 1357.57,-166.12 1352.87,-175.61 1359.82,-176.47"/>
</g>
<!-- middleware/errorMiddleware.ts -->
<g id="node28" class="node">
<title>middleware/errorMiddleware.ts</title>
<path fill="none" stroke="#c6c5fe" d="M1239.33,-540C1239.33,-540 1051.67,-540 1051.67,-540 1047.83,-540 1044,-536.17 1044,-532.33 1044,-532.33 1044,-524.67 1044,-524.67 1044,-520.83 1047.83,-517 1051.67,-517 1051.67,-517 1239.33,-517 1239.33,-517 1243.17,-517 1247,-520.83 1247,-524.67 1247,-524.67 1247,-532.33 1247,-532.33 1247,-536.17 1243.17,-540 1239.33,-540"/>
<text text-anchor="middle" x="1145.5" y="-524.8" font-family="Arial" font-size="14.00" fill="#c6c5fe">middleware/errorMiddleware.ts</text>
</g>
<!-- middleware/errorMiddleware.ts&#45;&gt;utils/errors.ts -->
<g id="edge40" class="edge">
<title>middleware/errorMiddleware.ts&#45;&gt;utils/errors.ts</title>
<path fill="none" stroke="#757575" d="M1243.32,-540.07C1249.49,-542.42 1255.45,-545.21 1261,-548.5 1302.59,-573.18 1333.54,-622.58 1348.67,-650.69"/>
<polygon fill="#757575" stroke="#757575" points="1345.62,-652.42 1353.35,-659.67 1351.83,-649.18 1345.62,-652.42"/>
</g>
<!-- middleware/errorMiddleware.ts&#45;&gt;utils/logger.ts -->
<g id="edge41" class="edge">
<title>middleware/errorMiddleware.ts&#45;&gt;utils/logger.ts</title>
<path fill="none" stroke="#757575" d="M1247.09,-538.1C1252.14,-540.96 1256.83,-544.39 1261,-548.5 1279.19,-566.43 1340.39,-947.61 1355.57,-1043.67"/>
<polygon fill="#757575" stroke="#757575" points="1352.14,-1044.37 1357.15,-1053.7 1359.05,-1043.28 1352.14,-1044.37"/>
</g>
<!-- middleware/uploadMiddleware.ts -->
<g id="node29" class="node">
<title>middleware/uploadMiddleware.ts</title>
<path fill="none" stroke="#c6c5fe" d="M1245.33,-2007C1245.33,-2007 1045.67,-2007 1045.67,-2007 1041.83,-2007 1038,-2003.17 1038,-1999.33 1038,-1999.33 1038,-1991.67 1038,-1991.67 1038,-1987.83 1041.83,-1984 1045.67,-1984 1045.67,-1984 1245.33,-1984 1245.33,-1984 1249.17,-1984 1253,-1987.83 1253,-1991.67 1253,-1991.67 1253,-1999.33 1253,-1999.33 1253,-2003.17 1249.17,-2007 1245.33,-2007"/>
<text text-anchor="middle" x="1145.5" y="-1991.8" font-family="Arial" font-size="14.00" fill="#c6c5fe">middleware/uploadMiddleware.ts</text>
</g>
<!-- middleware/uploadMiddleware.ts&#45;&gt;config/index.ts -->
<g id="edge42" class="edge">
<title>middleware/uploadMiddleware.ts&#45;&gt;config/index.ts</title>
<path fill="none" stroke="#757575" d="M1237.2,-1983.97C1245.84,-1980.29 1253.98,-1975.56 1261,-1969.5 1294.54,-1940.53 1279.45,-1917.2 1297,-1876.5 1313.87,-1837.38 1335.75,-1792.75 1348.5,-1767.27"/>
<polygon fill="#757575" stroke="#757575" points="1351.69,-1768.7 1353.06,-1758.19 1345.44,-1765.56 1351.69,-1768.7"/>
</g>
<!-- types/multer.d.ts -->
<g id="node30" class="node">
<title>types/multer.d.ts</title>
<path fill="none" stroke="#cfffac" d="M1410.33,-1908C1410.33,-1908 1309.67,-1908 1309.67,-1908 1305.83,-1908 1302,-1904.17 1302,-1900.33 1302,-1900.33 1302,-1892.67 1302,-1892.67 1302,-1888.83 1305.83,-1885 1309.67,-1885 1309.67,-1885 1410.33,-1885 1410.33,-1885 1414.17,-1885 1418,-1888.83 1418,-1892.67 1418,-1892.67 1418,-1900.33 1418,-1900.33 1418,-1904.17 1414.17,-1908 1410.33,-1908"/>
<text text-anchor="middle" x="1360" y="-1892.8" font-family="Arial" font-size="14.00" fill="#cfffac">types/multer.d.ts</text>
</g>
<!-- middleware/uploadMiddleware.ts&#45;&gt;types/multer.d.ts -->
<g id="edge43" class="edge">
<title>middleware/uploadMiddleware.ts&#45;&gt;types/multer.d.ts</title>
<path fill="none" stroke="#757575" d="M1218.57,-1983.96C1232.99,-1980.32 1247.76,-1975.6 1261,-1969.5 1291.04,-1955.66 1320.85,-1931.6 1339.55,-1914.9"/>
<polygon fill="#757575" stroke="#757575" points="1342.06,-1917.35 1347.1,-1908.03 1337.35,-1912.17 1342.06,-1917.35"/>
</g>
<!-- middleware/validationMiddleware.ts -->
<g id="node31" class="node">
<title>middleware/validationMiddleware.ts</title>
<path fill="none" stroke="#c6c5fe" d="M1253.33,-622C1253.33,-622 1037.67,-622 1037.67,-622 1033.83,-622 1030,-618.17 1030,-614.33 1030,-614.33 1030,-606.67 1030,-606.67 1030,-602.83 1033.83,-599 1037.67,-599 1037.67,-599 1253.33,-599 1253.33,-599 1257.17,-599 1261,-602.83 1261,-606.67 1261,-606.67 1261,-614.33 1261,-614.33 1261,-618.17 1257.17,-622 1253.33,-622"/>
<text text-anchor="middle" x="1145.5" y="-606.8" font-family="Arial" font-size="14.00" fill="#c6c5fe">middleware/validationMiddleware.ts</text>
</g>
<!-- middleware/validationMiddleware.ts&#45;&gt;utils/errors.ts -->
<g id="edge44" class="edge">
<title>middleware/validationMiddleware.ts&#45;&gt;utils/errors.ts</title>
<path fill="none" stroke="#757575" d="M1226.18,-622.05C1237.95,-624.44 1249.86,-627.24 1261,-630.5 1283.31,-637.03 1307.4,-647.06 1326.12,-655.57"/>
<polygon fill="#757575" stroke="#757575" points="1324.83,-658.83 1335.38,-659.86 1327.77,-652.48 1324.83,-658.83"/>
</g>
<!-- middleware/validationMiddleware.ts&#45;&gt;utils/logger.ts -->
<g id="edge45" class="edge">
<title>middleware/validationMiddleware.ts&#45;&gt;utils/logger.ts</title>
<path fill="none" stroke="#757575" d="M1250.04,-622.09C1253.96,-624.51 1257.64,-627.3 1261,-630.5 1322.04,-688.64 1350.15,-962.69 1357.18,-1043.2"/>
<polygon fill="#757575" stroke="#757575" points="1353.73,-1043.96 1358.07,-1053.63 1360.71,-1043.37 1353.73,-1043.96"/>
</g>
<!-- models/messageModel.ts -->
<g id="node32" class="node">
<title>models/messageModel.ts</title>
<path fill="none" stroke="#c6c5fe" d="M1223.83,-825C1223.83,-825 1067.17,-825 1067.17,-825 1063.33,-825 1059.5,-821.17 1059.5,-817.33 1059.5,-817.33 1059.5,-809.67 1059.5,-809.67 1059.5,-805.83 1063.33,-802 1067.17,-802 1067.17,-802 1223.83,-802 1223.83,-802 1227.67,-802 1231.5,-805.83 1231.5,-809.67 1231.5,-809.67 1231.5,-817.33 1231.5,-817.33 1231.5,-821.17 1227.67,-825 1223.83,-825"/>
<text text-anchor="middle" x="1145.5" y="-809.8" font-family="Arial" font-size="14.00" fill="#c6c5fe">models/messageModel.ts</text>
</g>
<!-- models/messageModel.ts&#45;&gt;utils/errors.ts -->
<g id="edge47" class="edge">
<title>models/messageModel.ts&#45;&gt;utils/errors.ts</title>
<path fill="none" stroke="#757575" d="M1172.4,-801.88C1196.21,-790.76 1232.09,-772.85 1261,-753.5 1290.04,-734.07 1320.44,-707.51 1339.54,-689.95"/>
<polygon fill="#757575" stroke="#757575" points="1342.05,-692.39 1346.99,-683.02 1337.28,-687.26 1342.05,-692.39"/>
</g>
<!-- models/messageModel.ts&#45;&gt;utils/logger.ts -->
<g id="edge48" class="edge">
<title>models/messageModel.ts&#45;&gt;utils/logger.ts</title>
<path fill="none" stroke="#757575" d="M1231.75,-823.28C1242.35,-827.16 1252.45,-832.41 1261,-839.5 1325.94,-893.36 1348.99,-998.42 1356.15,-1043.79"/>
<polygon fill="#757575" stroke="#757575" points="1352.73,-1044.58 1357.64,-1053.96 1359.65,-1043.56 1352.73,-1044.58"/>
</g>
<!-- models/messageModel.ts&#45;&gt;config/database.ts -->
<g id="edge46" class="edge">
<title>models/messageModel.ts&#45;&gt;config/database.ts</title>
<path fill="none" stroke="#757575" d="M1154.79,-825.18C1176.24,-856.06 1233.82,-943.06 1261,-1024.5 1341.69,-1266.31 1356.05,-1579.92 1358.51,-1664.62"/>
<polygon fill="#757575" stroke="#757575" points="1355.02,-1664.91 1358.78,-1674.82 1362.02,-1664.73 1355.02,-1664.91"/>
</g>
<!-- models/propertyModel.ts -->
<g id="node33" class="node">
<title>models/propertyModel.ts</title>
<path fill="none" stroke="#c6c5fe" d="M1220.83,-1809C1220.83,-1809 1070.17,-1809 1070.17,-1809 1066.33,-1809 1062.5,-1805.17 1062.5,-1801.33 1062.5,-1801.33 1062.5,-1793.67 1062.5,-1793.67 1062.5,-1789.83 1066.33,-1786 1070.17,-1786 1070.17,-1786 1220.83,-1786 1220.83,-1786 1224.67,-1786 1228.5,-1789.83 1228.5,-1793.67 1228.5,-1793.67 1228.5,-1801.33 1228.5,-1801.33 1228.5,-1805.17 1224.67,-1809 1220.83,-1809"/>
<text text-anchor="middle" x="1145.5" y="-1793.8" font-family="Arial" font-size="14.00" fill="#c6c5fe">models/propertyModel.ts</text>
</g>
<!-- models/propertyModel.ts&#45;&gt;config/index.ts -->
<g id="edge49" class="edge">
<title>models/propertyModel.ts&#45;&gt;config/index.ts</title>
<path fill="none" stroke="#757575" d="M1216.71,-1785.95C1231.41,-1783.16 1246.76,-1779.97 1261,-1776.5 1278.92,-1772.13 1298.39,-1766.38 1315.23,-1761.08"/>
<polygon fill="#757575" stroke="#757575" points="1316.34,-1764.4 1324.8,-1758.03 1314.21,-1757.74 1316.34,-1764.4"/>
</g>
<!-- models/propertyModel.ts&#45;&gt;utils/errors.ts -->
<g id="edge51" class="edge">
<title>models/propertyModel.ts&#45;&gt;utils/errors.ts</title>
<path fill="none" stroke="#757575" d="M1228.73,-1796.2C1241.06,-1792.41 1252.48,-1786.23 1261,-1776.5 1314.65,-1715.24 1288.31,-1125.47 1297,-1044.5 1311.45,-909.88 1342.86,-750.06 1354.52,-693.03"/>
<polygon fill="#757575" stroke="#757575" points="1357.99,-693.54 1356.58,-683.04 1351.14,-692.12 1357.99,-693.54"/>
</g>
<!-- models/propertyModel.ts&#45;&gt;utils/logger.ts -->
<g id="edge52" class="edge">
<title>models/propertyModel.ts&#45;&gt;utils/logger.ts</title>
<path fill="none" stroke="#757575" d="M1228.6,-1795.38C1240.8,-1791.64 1252.2,-1785.7 1261,-1776.5 1310.08,-1725.19 1349.45,-1201.66 1357.49,-1087.43"/>
<polygon fill="#757575" stroke="#757575" points="1361.01,-1087.37 1358.21,-1077.15 1354.02,-1086.88 1361.01,-1087.37"/>
</g>
<!-- models/propertyModel.ts&#45;&gt;types/multer.d.ts -->
<g id="edge50" class="edge">
<title>models/propertyModel.ts&#45;&gt;types/multer.d.ts</title>
<path fill="none" stroke="#757575" d="M1171.29,-1809.05C1209.26,-1826.74 1281.9,-1860.58 1324.83,-1880.58"/>
<polygon fill="#757575" stroke="#757575" points="1323.49,-1883.82 1334.04,-1884.87 1326.45,-1877.47 1323.49,-1883.82"/>
</g>
<!-- models/userModel.ts -->
<g id="node34" class="node">
<title>models/userModel.ts</title>
<path fill="none" stroke="#c6c5fe" d="M1209.33,-1688C1209.33,-1688 1081.67,-1688 1081.67,-1688 1077.83,-1688 1074,-1684.17 1074,-1680.33 1074,-1680.33 1074,-1672.67 1074,-1672.67 1074,-1668.83 1077.83,-1665 1081.67,-1665 1081.67,-1665 1209.33,-1665 1209.33,-1665 1213.17,-1665 1217,-1668.83 1217,-1672.67 1217,-1672.67 1217,-1680.33 1217,-1680.33 1217,-1684.17 1213.17,-1688 1209.33,-1688"/>
<text text-anchor="middle" x="1145.5" y="-1672.8" font-family="Arial" font-size="14.00" fill="#c6c5fe">models/userModel.ts</text>
</g>
<!-- models/userModel.ts&#45;&gt;config/index.ts -->
<g id="edge54" class="edge">
<title>models/userModel.ts&#45;&gt;config/index.ts</title>
<path fill="none" stroke="#757575" d="M1181.59,-1688.06C1217.89,-1700.02 1274.69,-1718.73 1314.21,-1731.74"/>
<polygon fill="#757575" stroke="#757575" points="1313.26,-1735.12 1323.86,-1734.92 1315.45,-1728.47 1313.26,-1735.12"/>
</g>
<!-- models/userModel.ts&#45;&gt;utils/errors.ts -->
<g id="edge55" class="edge">
<title>models/userModel.ts&#45;&gt;utils/errors.ts</title>
<path fill="none" stroke="#757575" d="M1190.87,-1664.99C1215.84,-1656.07 1245.12,-1640.98 1261,-1616.5 1295.66,-1563.08 1289.77,-1107.77 1297,-1044.5 1312.37,-909.98 1343.22,-750.1 1354.63,-693.04"/>
<polygon fill="#757575" stroke="#757575" points="1358.1,-693.54 1356.64,-683.04 1351.24,-692.15 1358.1,-693.54"/>
</g>
<!-- models/userModel.ts&#45;&gt;utils/logger.ts -->
<g id="edge56" class="edge">
<title>models/userModel.ts&#45;&gt;utils/logger.ts</title>
<path fill="none" stroke="#757575" d="M1217.08,-1673.71C1233.46,-1669.77 1249.45,-1662.73 1261,-1650.5 1339.98,-1566.86 1355.75,-1183.64 1358.48,-1087.45"/>
<polygon fill="#757575" stroke="#757575" points="1361.99,-1087.27 1358.75,-1077.18 1354.99,-1087.09 1361.99,-1087.27"/>
</g>
<!-- models/userModel.ts&#45;&gt;config/database.ts -->
<g id="edge53" class="edge">
<title>models/userModel.ts&#45;&gt;config/database.ts</title>
<path fill="none" stroke="#757575" d="M1217.26,-1679.83C1239.56,-1680.88 1264.22,-1682.04 1286.63,-1683.09"/>
<polygon fill="#757575" stroke="#757575" points="1286.6,-1686.6 1296.75,-1683.57 1286.93,-1679.6 1286.6,-1686.6"/>
</g>
<!-- routes/adminRoutes.ts&#45;&gt;utils/logger.ts -->
<g id="edge59" class="edge">
<title>routes/adminRoutes.ts&#45;&gt;utils/logger.ts</title>
<path fill="none" stroke="#757575" d="M961.21,-889.71C972.65,-892.68 983.97,-896.8 994,-902.5 1015.08,-914.48 1008.8,-931.73 1030,-943.5 1120.98,-993.99 1166.68,-937.58 1261,-981.5 1294.03,-996.88 1324.64,-1026.61 1342.57,-1046.26"/>
<polygon fill="#757575" stroke="#757575" points="1339.97,-1048.6 1349.24,-1053.74 1345.2,-1043.94 1339.97,-1048.6"/>
</g>
<!-- routes/adminRoutes.ts&#45;&gt;controllers/adminController.ts -->
<g id="edge57" class="edge">
<title>routes/adminRoutes.ts&#45;&gt;controllers/adminController.ts</title>
<path fill="none" stroke="#757575" d="M892.34,-870.84C914.56,-830.44 989.64,-697.51 1030,-671.5 1033.2,-669.44 1036.55,-667.57 1040.01,-665.88"/>
<polygon fill="#757575" stroke="#757575" points="1041.61,-669 1049.4,-661.82 1038.83,-662.58 1041.61,-669"/>
</g>
<!-- routes/adminRoutes.ts&#45;&gt;middleware/authMiddleware.ts -->
<g id="edge58" class="edge">
<title>routes/adminRoutes.ts&#45;&gt;middleware/authMiddleware.ts</title>
<path fill="none" stroke="#757575" d="M961.18,-886.77C973,-890.06 984.46,-895.05 994,-902.5 1024.41,-926.25 1003.86,-953.12 1030,-981.5 1050.02,-1003.24 1079.17,-1019.38 1103.04,-1030.02"/>
<polygon fill="#757575" stroke="#757575" points="1101.67,-1033.24 1112.24,-1033.96 1104.43,-1026.81 1101.67,-1033.24"/>
</g>
<!-- routes/authRoutes.ts&#45;&gt;utils/logger.ts -->
<g id="edge62" class="edge">
<title>routes/authRoutes.ts&#45;&gt;utils/logger.ts</title>
<path fill="none" stroke="#757575" d="M955.53,-934.91C968.73,-938.54 982.12,-943.29 994,-949.5 1012.97,-959.41 1010.77,-972.09 1030,-981.5 1123.79,-1027.43 1160.93,-994.62 1261,-1024.5 1283.27,-1031.15 1307.37,-1041.19 1326.09,-1049.67"/>
<polygon fill="#757575" stroke="#757575" points="1324.81,-1052.93 1335.36,-1053.94 1327.74,-1046.57 1324.81,-1052.93"/>
</g>
<!-- routes/authRoutes.ts&#45;&gt;controllers/authController.ts -->
<g id="edge60" class="edge">
<title>routes/authRoutes.ts&#45;&gt;controllers/authController.ts</title>
<path fill="none" stroke="#757575" d="M955.63,-922.28C969.9,-918.9 983.69,-912.86 994,-902.5 1054.63,-841.58 968.79,-772.84 1030,-712.5 1034.62,-707.94 1039.89,-704.22 1045.57,-701.18"/>
<polygon fill="#757575" stroke="#757575" points="1047.15,-704.31 1054.79,-696.97 1044.24,-697.94 1047.15,-704.31"/>
</g>
<!-- routes/authRoutes.ts&#45;&gt;middleware/authMiddleware.ts -->
<g id="edge61" class="edge">
<title>routes/authRoutes.ts&#45;&gt;middleware/authMiddleware.ts</title>
<path fill="none" stroke="#757575" d="M955.69,-931.03C969.39,-934.95 982.93,-940.8 994,-949.5 1021.51,-971.12 1002.35,-998.06 1030,-1019.5 1035.3,-1023.61 1041.14,-1027.1 1047.28,-1030.05"/>
<polygon fill="#757575" stroke="#757575" points="1045.89,-1033.26 1056.46,-1034 1048.66,-1026.83 1045.89,-1033.26"/>
</g>
<!-- routes/dashboardRoutes.ts&#45;&gt;utils/errors.ts -->
<g id="edge65" class="edge">
<title>routes/dashboardRoutes.ts&#45;&gt;utils/errors.ts</title>
<path fill="none" stroke="#757575" d="M971.72,-1070.92C979.48,-1068.37 987.03,-1065.27 994,-1061.5 1014.18,-1050.59 1013.13,-1040.06 1030,-1024.5 1127.93,-934.18 1173.97,-934.35 1261,-833.5 1300.14,-788.14 1333.23,-725.25 1349.04,-692.78"/>
<polygon fill="#757575" stroke="#757575" points="1352.38,-693.9 1353.55,-683.37 1346.07,-690.88 1352.38,-693.9"/>
</g>
<!-- routes/dashboardRoutes.ts&#45;&gt;utils/logger.ts -->
<g id="edge66" class="edge">
<title>routes/dashboardRoutes.ts&#45;&gt;utils/logger.ts</title>
<path fill="none" stroke="#757575" d="M974.69,-1079.31C1070.76,-1075.86 1221.14,-1070.45 1302.38,-1067.54"/>
<polygon fill="#757575" stroke="#757575" points="1302.54,-1071.03 1312.41,-1067.17 1302.29,-1064.04 1302.54,-1071.03"/>
</g>
<!-- routes/dashboardRoutes.ts&#45;&gt;config/database.ts -->
<g id="edge63" class="edge">
<title>routes/dashboardRoutes.ts&#45;&gt;config/database.ts</title>
<path fill="none" stroke="#757575" d="M927.34,-1094.09C951.02,-1103.01 978.95,-1117.9 994,-1141.5 1060.46,-1245.7 939.82,-1611.98 1030,-1696.5 1066,-1730.24 1203.1,-1713.92 1288.55,-1699.71"/>
<polygon fill="#757575" stroke="#757575" points="1289.17,-1703.16 1298.45,-1698.04 1288,-1696.26 1289.17,-1703.16"/>
</g>
<!-- routes/dashboardRoutes.ts&#45;&gt;middleware/authMiddleware.ts -->
<g id="edge64" class="edge">
<title>routes/dashboardRoutes.ts&#45;&gt;middleware/authMiddleware.ts</title>
<path fill="none" stroke="#757575" d="M966.37,-1071C994.08,-1067.03 1025.31,-1062.56 1053.78,-1058.48"/>
<polygon fill="#757575" stroke="#757575" points="1054.33,-1061.94 1063.73,-1057.06 1053.34,-1055.01 1054.33,-1061.94"/>
</g>
<!-- routes/inquiryRoutes.ts&#45;&gt;controllers/inquiryController.ts -->
<g id="edge82" class="edge">
<title>routes/inquiryRoutes.ts&#45;&gt;controllers/inquiryController.ts</title>
<path fill="none" stroke="#757575" d="M435.28,-991.98C468.78,-950.42 583.74,-807.79 626.13,-755.19"/>
<polygon fill="#757575" stroke="#757575" points="628.96,-757.26 632.51,-747.27 623.51,-752.86 628.96,-757.26"/>
</g>
<!-- routes/inquiryRoutes.ts&#45;&gt;middleware/authMiddleware.ts -->
<g id="edge83" class="edge">
<title>routes/inquiryRoutes.ts&#45;&gt;middleware/authMiddleware.ts</title>
<path fill="none" stroke="#757575" d="M502.92,-1002.53C612.31,-1001.88 818.98,-1003.42 994,-1020.5 1021.11,-1023.15 1050.73,-1027.7 1076.47,-1032.2"/>
<polygon fill="#757575" stroke="#757575" points="1076.04,-1035.68 1086.49,-1033.99 1077.26,-1028.79 1076.04,-1035.68"/>
</g>
<!-- routes/messageRoutes.ts&#45;&gt;controllers/inquiryController.ts -->
<g id="edge84" class="edge">
<title>routes/messageRoutes.ts&#45;&gt;controllers/inquiryController.ts</title>
<path fill="none" stroke="#757575" d="M451.2,-823.83C489.9,-805.92 564.03,-771.6 607.62,-751.42"/>
<polygon fill="#757575" stroke="#757575" points="609.36,-754.47 616.96,-747.09 606.41,-748.12 609.36,-754.47"/>
</g>
<!-- routes/messageRoutes.ts&#45;&gt;controllers/messageController.ts -->
<g id="edge85" class="edge">
<title>routes/messageRoutes.ts&#45;&gt;controllers/messageController.ts</title>
<path fill="none" stroke="#757575" d="M432.42,-823.89C462.55,-770.75 596.07,-549.68 776,-466.5 866.17,-424.82 982.28,-426.29 1059.84,-433.93"/>
<polygon fill="#757575" stroke="#757575" points="1059.73,-437.44 1070.04,-434.99 1060.46,-430.48 1059.73,-437.44"/>
</g>
<!-- routes/messageRoutes.ts&#45;&gt;middleware/authMiddleware.ts -->
<g id="edge86" class="edge">
<title>routes/messageRoutes.ts&#45;&gt;middleware/authMiddleware.ts</title>
<path fill="none" stroke="#757575" d="M462.17,-847.06C525.56,-867.24 660.93,-909.92 776,-943.5 872.47,-971.65 898.6,-971.91 994,-1003.5 1010.3,-1008.9 1013.63,-1012.34 1030,-1017.5 1046.48,-1022.69 1064.54,-1027.51 1081.35,-1031.63"/>
<polygon fill="#757575" stroke="#757575" points="1080.54,-1035.03 1091.08,-1033.97 1082.18,-1028.23 1080.54,-1035.03"/>
</g>
<!-- routes/profileRoutes.ts&#45;&gt;utils/logger.ts -->
<g id="edge89" class="edge">
<title>routes/profileRoutes.ts&#45;&gt;utils/logger.ts</title>
<path fill="none" stroke="#757575" d="M706.89,-1254C728.7,-1257.46 753.35,-1260.79 776,-1262.5 872.62,-1269.78 898.11,-1276.39 994,-1262.5 1116.47,-1244.76 1157.67,-1251.6 1261,-1183.5 1299.81,-1157.92 1331.26,-1112.36 1347.34,-1085.96"/>
<polygon fill="#757575" stroke="#757575" points="1350.46,-1087.56 1352.56,-1077.17 1344.44,-1083.99 1350.46,-1087.56"/>
</g>
<!-- routes/profileRoutes.ts&#45;&gt;controllers/userController.ts -->
<g id="edge87" class="edge">
<title>routes/profileRoutes.ts&#45;&gt;controllers/userController.ts</title>
<path fill="none" stroke="#757575" d="M677.26,-1254.03C696.81,-1261.83 721.27,-1273.45 740,-1288.5 760.24,-1304.76 754.16,-1320.46 776,-1334.5 782.8,-1338.88 790.28,-1342.52 798.02,-1345.54"/>
<polygon fill="#757575" stroke="#757575" points="796.97,-1348.89 807.57,-1348.94 799.32,-1342.29 796.97,-1348.89"/>
</g>
<!-- routes/profileRoutes.ts&#45;&gt;middleware/authMiddleware.ts -->
<g id="edge88" class="edge">
<title>routes/profileRoutes.ts&#45;&gt;middleware/authMiddleware.ts</title>
<path fill="none" stroke="#757575" d="M655.12,-1230.91C676.4,-1209.48 725.3,-1163.84 776,-1141.5 866.07,-1101.81 899.13,-1128.71 994,-1102.5 1034.34,-1091.36 1079,-1073.74 1109.11,-1061.04"/>
<polygon fill="#757575" stroke="#757575" points="1110.52,-1064.24 1118.35,-1057.1 1107.78,-1057.8 1110.52,-1064.24"/>
</g>
<!-- utils/validation.ts -->
<g id="node46" class="node">
<title>utils/validation.ts</title>
<path fill="none" stroke="#c6c5fe" d="M935.33,-1254C935.33,-1254 834.67,-1254 834.67,-1254 830.83,-1254 827,-1250.17 827,-1246.33 827,-1246.33 827,-1238.67 827,-1238.67 827,-1234.83 830.83,-1231 834.67,-1231 834.67,-1231 935.33,-1231 935.33,-1231 939.17,-1231 943,-1234.83 943,-1238.67 943,-1238.67 943,-1246.33 943,-1246.33 943,-1250.17 939.17,-1254 935.33,-1254"/>
<text text-anchor="middle" x="885" y="-1238.8" font-family="Arial" font-size="14.00" fill="#c6c5fe">utils/validation.ts</text>
</g>
<!-- routes/profileRoutes.ts&#45;&gt;utils/validation.ts -->
<g id="edge90" class="edge">
<title>routes/profileRoutes.ts&#45;&gt;utils/validation.ts</title>
<path fill="none" stroke="#757575" d="M719.28,-1242.5C750.53,-1242.5 786.49,-1242.5 816.83,-1242.5"/>
<polygon fill="#757575" stroke="#757575" points="816.89,-1246 826.89,-1242.5 816.89,-1239 816.89,-1246"/>
</g>
<!-- routes/propertyRoutes.ts&#45;&gt;config/index.ts -->
<g id="edge91" class="edge">
<title>routes/propertyRoutes.ts&#45;&gt;config/index.ts</title>
<path fill="none" stroke="#757575" d="M967.1,-1044.03C977.37,-1047.68 986.79,-1053.24 994,-1061.5 1049.3,-1124.85 969.14,-1759.47 1030,-1817.5 1104.3,-1888.35 1163.34,-1849.16 1261,-1817.5 1292.37,-1807.33 1322.11,-1782.94 1340.43,-1765.59"/>
<polygon fill="#757575" stroke="#757575" points="1343.3,-1767.68 1348.01,-1758.19 1338.41,-1762.67 1343.3,-1767.68"/>
</g>
<!-- routes/propertyRoutes.ts&#45;&gt;controllers/propertyController.ts -->
<g id="edge92" class="edge">
<title>routes/propertyRoutes.ts&#45;&gt;controllers/propertyController.ts</title>
<path fill="none" stroke="#757575" d="M904.82,-1029.73C929.26,-1013.43 971.45,-981.64 994,-943.5 1029.11,-884.11 987.45,-846.81 1030,-792.5 1046.05,-772.01 1071.17,-757.96 1093.79,-748.73"/>
<polygon fill="#757575" stroke="#757575" points="1095.23,-751.92 1103.31,-745.06 1092.72,-745.39 1095.23,-751.92"/>
</g>
<!-- routes/propertyRoutes.ts&#45;&gt;middleware/authMiddleware.ts -->
<g id="edge93" class="edge">
<title>routes/propertyRoutes.ts&#45;&gt;middleware/authMiddleware.ts</title>
<path fill="none" stroke="#757575" d="M967.08,-1042.75C988.62,-1043.09 1012.24,-1043.45 1035.03,-1043.81"/>
<polygon fill="#757575" stroke="#757575" points="1035.02,-1047.31 1045.08,-1043.96 1035.13,-1040.31 1035.02,-1047.31"/>
</g>
<!-- routes/searchRoutes.ts&#45;&gt;controllers/searchController.ts -->
<g id="edge94" class="edge">
<title>routes/searchRoutes.ts&#45;&gt;controllers/searchController.ts</title>
<path fill="none" stroke="#757575" d="M962.51,-1162.8C986.17,-1162.89 1012.67,-1162.99 1037.97,-1163.09"/>
<polygon fill="#757575" stroke="#757575" points="1037.96,-1166.59 1047.98,-1163.13 1037.99,-1159.59 1037.96,-1166.59"/>
</g>
<!-- routes/searchRoutes.ts&#45;&gt;middleware/authMiddleware.ts -->
<g id="edge95" class="edge">
<title>routes/searchRoutes.ts&#45;&gt;middleware/authMiddleware.ts</title>
<path fill="none" stroke="#757575" d="M952.56,-1150.98C966.62,-1147.31 981.09,-1142.58 994,-1136.5 1012.1,-1127.98 1013.23,-1120.4 1030,-1109.5 1057.01,-1091.93 1089.15,-1074.23 1112.49,-1061.91"/>
<polygon fill="#757575" stroke="#757575" points="1114.36,-1064.88 1121.6,-1057.14 1111.11,-1058.68 1114.36,-1064.88"/>
</g>
<!-- routes/userRoutes.ts&#45;&gt;config/index.ts -->
<g id="edge96" class="edge">
<title>routes/userRoutes.ts&#45;&gt;config/index.ts</title>
<path fill="none" stroke="#757575" d="M648.53,-1372.09C674.07,-1435.57 806.89,-1742.23 1030,-1850.5 1122.37,-1895.32 1166.74,-1891.19 1261,-1850.5 1300.38,-1833.5 1331.27,-1792.02 1347.18,-1766.88"/>
<polygon fill="#757575" stroke="#757575" points="1350.29,-1768.49 1352.52,-1758.13 1344.32,-1764.84 1350.29,-1768.49"/>
</g>
<!-- routes/userRoutes.ts&#45;&gt;utils/logger.ts -->
<g id="edge99" class="edge">
<title>routes/userRoutes.ts&#45;&gt;utils/logger.ts</title>
<path fill="none" stroke="#757575" d="M669.39,-1372.12C760.52,-1411.9 1075.59,-1532.63 1261,-1391.5 1310.9,-1353.52 1345.41,-1154.47 1355.76,-1087.51"/>
<polygon fill="#757575" stroke="#757575" points="1359.27,-1087.68 1357.31,-1077.27 1352.35,-1086.63 1359.27,-1087.68"/>
</g>
<!-- routes/userRoutes.ts&#45;&gt;controllers/userController.ts -->
<g id="edge97" class="edge">
<title>routes/userRoutes.ts&#45;&gt;controllers/userController.ts</title>
<path fill="none" stroke="#757575" d="M713.74,-1360.5C735.78,-1360.5 760.58,-1360.5 784.29,-1360.5"/>
<polygon fill="#757575" stroke="#757575" points="784.38,-1364 794.38,-1360.5 784.38,-1357 784.38,-1364"/>
</g>
<!-- routes/userRoutes.ts&#45;&gt;middleware/authMiddleware.ts -->
<g id="edge98" class="edge">
<title>routes/userRoutes.ts&#45;&gt;middleware/authMiddleware.ts</title>
<path fill="none" stroke="#757575" d="M713.57,-1349.17C803.8,-1333.13 954.37,-1301.4 994,-1262.5 1033.73,-1223.49 999.5,-1189.08 1030,-1142.5 1052.34,-1108.38 1090.17,-1079.72 1116.2,-1062.6"/>
<polygon fill="#757575" stroke="#757575" points="1118.34,-1065.38 1124.87,-1057.03 1114.56,-1059.49 1118.34,-1065.38"/>
</g>
<!-- routes/usersRoutes.ts&#45;&gt;utils/logger.ts -->
<g id="edge102" class="edge">
<title>routes/usersRoutes.ts&#45;&gt;utils/logger.ts</title>
<path fill="none" stroke="#757575" d="M699.12,-1321.1C713.14,-1325.53 727.7,-1331.5 740,-1339.5 760.33,-1352.72 753.91,-1370.5 776,-1380.5 812.44,-1397 1256.7,-1373.76 1261,-1370.5 1352.62,-1301.04 1360.18,-1144.88 1359.69,-1087.33"/>
<polygon fill="#757575" stroke="#757575" points="1363.19,-1087.13 1359.51,-1077.19 1356.19,-1087.26 1363.19,-1087.13"/>
</g>
<!-- routes/usersRoutes.ts&#45;&gt;controllers/userController.ts -->
<g id="edge100" class="edge">
<title>routes/usersRoutes.ts&#45;&gt;controllers/userController.ts</title>
<path fill="none" stroke="#757575" d="M698.16,-1321.01C734.2,-1328.67 781.72,-1338.77 819.69,-1346.83"/>
<polygon fill="#757575" stroke="#757575" points="819.11,-1350.29 829.62,-1348.94 820.57,-1343.44 819.11,-1350.29"/>
</g>
<!-- routes/usersRoutes.ts&#45;&gt;middleware/authMiddleware.ts -->
<g id="edge101" class="edge">
<title>routes/usersRoutes.ts&#45;&gt;middleware/authMiddleware.ts</title>
<path fill="none" stroke="#757575" d="M675.17,-1297.94C694.87,-1289.77 720.25,-1277.6 740,-1262.5 759.26,-1247.77 754.88,-1233.42 776,-1221.5 861.73,-1173.14 915.34,-1241.66 994,-1182.5 1022.91,-1160.76 1005.09,-1135.73 1030,-1109.5 1050.49,-1087.93 1079.89,-1071.7 1103.77,-1060.99"/>
<polygon fill="#757575" stroke="#757575" points="1105.16,-1064.2 1112.95,-1057.01 1102.38,-1057.77 1105.16,-1064.2"/>
</g>
<!-- utils/validation.ts&#45;&gt;utils/errors.ts -->
<g id="edge124" class="edge">
<title>utils/validation.ts&#45;&gt;utils/errors.ts</title>
<path fill="none" stroke="#757575" d="M943.2,-1238.26C960.97,-1234.59 979.65,-1228.04 994,-1216.5 1022.51,-1193.58 1002.5,-1166.61 1030,-1142.5 1111.37,-1071.15 1187.52,-1144.95 1261,-1065.5 1312.67,-1009.64 1346.89,-767.73 1356.34,-693.34"/>
<polygon fill="#757575" stroke="#757575" points="1359.84,-693.62 1357.6,-683.26 1352.89,-692.75 1359.84,-693.62"/>
</g>
<!-- services/authService.ts -->
<g id="node47" class="node">
<title>services/authService.ts</title>
<path fill="none" stroke="#c6c5fe" d="M1215.33,-1334C1215.33,-1334 1075.67,-1334 1075.67,-1334 1071.83,-1334 1068,-1330.17 1068,-1326.33 1068,-1326.33 1068,-1318.67 1068,-1318.67 1068,-1314.83 1071.83,-1311 1075.67,-1311 1075.67,-1311 1215.33,-1311 1215.33,-1311 1219.17,-1311 1223,-1314.83 1223,-1318.67 1223,-1318.67 1223,-1326.33 1223,-1326.33 1223,-1330.17 1219.17,-1334 1215.33,-1334"/>
<text text-anchor="middle" x="1145.5" y="-1318.8" font-family="Arial" font-size="14.00" fill="#c6c5fe">services/authService.ts</text>
</g>
<!-- services/authService.ts&#45;&gt;config/index.ts -->
<g id="edge103" class="edge">
<title>services/authService.ts&#45;&gt;config/index.ts</title>
<path fill="none" stroke="#757575" d="M1156.73,-1334.1C1179.52,-1360.61 1234.49,-1428.52 1261,-1495.5 1296.01,-1583.96 1244.59,-1627.1 1297,-1706.5 1303.32,-1716.08 1312.81,-1723.85 1322.48,-1729.91"/>
<polygon fill="#757575" stroke="#757575" points="1320.9,-1733.04 1331.32,-1734.99 1324.39,-1726.97 1320.9,-1733.04"/>
</g>
<!-- services/authService.ts&#45;&gt;utils/errors.ts -->
<g id="edge104" class="edge">
<title>services/authService.ts&#45;&gt;utils/errors.ts</title>
<path fill="none" stroke="#757575" d="M1223.02,-1321.9C1237.28,-1318.35 1250.86,-1312.08 1261,-1301.5 1300.91,-1259.87 1288.27,-1101.5 1297,-1044.5 1317.49,-910.67 1345.21,-750.37 1355.21,-693.12"/>
<polygon fill="#757575" stroke="#757575" points="1358.69,-693.54 1356.96,-683.08 1351.79,-692.33 1358.69,-693.54"/>
</g>
<!-- services/authService.ts&#45;&gt;utils/logger.ts -->
<g id="edge105" class="edge">
<title>services/authService.ts&#45;&gt;utils/logger.ts</title>
<path fill="none" stroke="#757575" d="M1223.16,-1319.28C1236.83,-1315.82 1250.15,-1310.26 1261,-1301.5 1329.7,-1246.02 1350.81,-1134.15 1356.81,-1087.11"/>
<polygon fill="#757575" stroke="#757575" points="1360.29,-1087.45 1357.97,-1077.11 1353.34,-1086.64 1360.29,-1087.45"/>
</g>
<!-- services/messageService.ts&#45;&gt;utils/errors.ts -->
<g id="edge111" class="edge">
<title>services/messageService.ts&#45;&gt;utils/errors.ts</title>
<path fill="none" stroke="#757575" d="M1238.15,-581.01C1246.05,-583.34 1253.77,-586.14 1261,-589.5 1293.39,-604.55 1323.8,-633.1 1341.91,-652.22"/>
<polygon fill="#757575" stroke="#757575" points="1339.53,-654.8 1348.89,-659.77 1344.67,-650.05 1339.53,-654.8"/>
</g>
<!-- services/messageService.ts&#45;&gt;utils/logger.ts -->
<g id="edge112" class="edge">
<title>services/messageService.ts&#45;&gt;utils/logger.ts</title>
<path fill="none" stroke="#757575" d="M1238.07,-574.86C1246.55,-578.35 1254.41,-583.11 1261,-589.5 1294.53,-622.04 1343.41,-954.69 1355.97,-1043.7"/>
<polygon fill="#757575" stroke="#757575" points="1352.52,-1044.32 1357.38,-1053.74 1359.46,-1043.35 1352.52,-1044.32"/>
</g>
<!-- services/propertyService.ts -->
<g id="node49" class="node">
<title>services/propertyService.ts</title>
<path fill="none" stroke="#c6c5fe" d="M1227.33,-1608C1227.33,-1608 1063.67,-1608 1063.67,-1608 1059.83,-1608 1056,-1604.17 1056,-1600.33 1056,-1600.33 1056,-1592.67 1056,-1592.67 1056,-1588.83 1059.83,-1585 1063.67,-1585 1063.67,-1585 1227.33,-1585 1227.33,-1585 1231.17,-1585 1235,-1588.83 1235,-1592.67 1235,-1592.67 1235,-1600.33 1235,-1600.33 1235,-1604.17 1231.17,-1608 1227.33,-1608"/>
<text text-anchor="middle" x="1145.5" y="-1592.8" font-family="Arial" font-size="14.00" fill="#c6c5fe">services/propertyService.ts</text>
</g>
<!-- services/propertyService.ts&#45;&gt;config/index.ts -->
<g id="edge113" class="edge">
<title>services/propertyService.ts&#45;&gt;config/index.ts</title>
<path fill="none" stroke="#757575" d="M1178.36,-1608.05C1202.82,-1618.01 1236.45,-1634.14 1261,-1655.5 1281.93,-1673.71 1276.98,-1687.29 1297,-1706.5 1306.08,-1715.21 1317.32,-1723.12 1327.73,-1729.57"/>
<polygon fill="#757575" stroke="#757575" points="1326.2,-1732.74 1336.58,-1734.84 1329.78,-1726.72 1326.2,-1732.74"/>
</g>
<!-- services/propertyService.ts&#45;&gt;utils/errors.ts -->
<g id="edge114" class="edge">
<title>services/propertyService.ts&#45;&gt;utils/errors.ts</title>
<path fill="none" stroke="#757575" d="M1190.78,-1584.93C1215.72,-1575.99 1245,-1560.89 1261,-1536.5 1321.13,-1444.84 1284,-1153.35 1297,-1044.5 1313.06,-910.06 1343.48,-750.14 1354.7,-693.05"/>
<polygon fill="#757575" stroke="#757575" points="1358.18,-693.54 1356.68,-683.05 1351.31,-692.18 1358.18,-693.54"/>
</g>
<!-- services/propertyService.ts&#45;&gt;utils/logger.ts -->
<g id="edge115" class="edge">
<title>services/propertyService.ts&#45;&gt;utils/logger.ts</title>
<path fill="none" stroke="#757575" d="M1235.26,-1587.55C1244.87,-1583.49 1253.77,-1577.97 1261,-1570.5 1329.61,-1499.68 1352.77,-1175.29 1357.84,-1087.48"/>
<polygon fill="#757575" stroke="#757575" points="1361.35,-1087.51 1358.41,-1077.33 1354.36,-1087.12 1361.35,-1087.51"/>
</g>
<!-- types/auth.d.ts -->
<g id="node50" class="node">
<title>types/auth.d.ts</title>
<path fill="none" stroke="#c6c5fe" d="M1189.83,-105C1189.83,-105 1101.17,-105 1101.17,-105 1097.33,-105 1093.5,-101.17 1093.5,-97.33 1093.5,-97.33 1093.5,-89.67 1093.5,-89.67 1093.5,-85.83 1097.33,-82 1101.17,-82 1101.17,-82 1189.83,-82 1189.83,-82 1193.67,-82 1197.5,-85.83 1197.5,-89.67 1197.5,-89.67 1197.5,-97.33 1197.5,-97.33 1197.5,-101.17 1193.67,-105 1189.83,-105"/>
<text text-anchor="middle" x="1145.5" y="-89.8" font-family="Arial" font-size="14.00" fill="#c6c5fe">types/auth.d.ts</text>
</g>
<!-- types/auth.d.ts&#45;&gt;types/user.ts -->
<g id="edge121" class="edge">
<title>types/auth.d.ts&#45;&gt;types/user.ts</title>
<path fill="none" stroke="#757575" d="M1197.5,-99.91C1217.53,-103.08 1240.57,-107.52 1261,-113.5 1283.31,-120.03 1307.4,-130.06 1326.12,-138.57"/>
<polygon fill="#757575" stroke="#757575" points="1324.83,-141.83 1335.38,-142.86 1327.77,-135.48 1324.83,-141.83"/>
</g>
<!-- types/express/index.d.ts -->
<g id="node51" class="node">
<title>types/express/index.d.ts</title>
<path fill="none" stroke="#c6c5fe" d="M1218.33,-64C1218.33,-64 1072.67,-64 1072.67,-64 1068.83,-64 1065,-60.17 1065,-56.33 1065,-56.33 1065,-48.67 1065,-48.67 1065,-44.83 1068.83,-41 1072.67,-41 1072.67,-41 1218.33,-41 1218.33,-41 1222.17,-41 1226,-44.83 1226,-48.67 1226,-48.67 1226,-56.33 1226,-56.33 1226,-60.17 1222.17,-64 1218.33,-64"/>
<text text-anchor="middle" x="1145.5" y="-48.8" font-family="Arial" font-size="14.00" fill="#c6c5fe">types/express/index.d.ts</text>
</g>
<!-- types/express/index.d.ts&#45;&gt;types/user.ts -->
<g id="edge122" class="edge">
<title>types/express/index.d.ts&#45;&gt;types/user.ts</title>
<path fill="none" stroke="#757575" d="M1226.07,-60.82C1238.1,-63.65 1250.11,-67.44 1261,-72.5 1293.39,-87.55 1323.8,-116.1 1341.91,-135.22"/>
<polygon fill="#757575" stroke="#757575" points="1339.53,-137.8 1348.89,-142.77 1344.67,-133.05 1339.53,-137.8"/>
</g>
<!-- types/jsonwebtoken.d.ts -->
<g id="node52" class="node">
<title>types/jsonwebtoken.d.ts</title>
<path fill="none" stroke="#cfffac" d="M154.83,-1741C154.83,-1741 9.17,-1741 9.17,-1741 5.33,-1741 1.5,-1737.17 1.5,-1733.33 1.5,-1733.33 1.5,-1725.67 1.5,-1725.67 1.5,-1721.83 5.33,-1718 9.17,-1718 9.17,-1718 154.83,-1718 154.83,-1718 158.67,-1718 162.5,-1721.83 162.5,-1725.67 162.5,-1725.67 162.5,-1733.33 162.5,-1733.33 162.5,-1737.17 158.67,-1741 154.83,-1741"/>
<text text-anchor="middle" x="82" y="-1725.8" font-family="Arial" font-size="14.00" fill="#cfffac">types/jsonwebtoken.d.ts</text>
</g>
<!-- types/property.ts -->
<g id="node53" class="node">
<title>types/property.ts</title>
<path fill="none" stroke="#cfffac" d="M132.33,-1782C132.33,-1782 31.67,-1782 31.67,-1782 27.83,-1782 24,-1778.17 24,-1774.33 24,-1774.33 24,-1766.67 24,-1766.67 24,-1762.83 27.83,-1759 31.67,-1759 31.67,-1759 132.33,-1759 132.33,-1759 136.17,-1759 140,-1762.83 140,-1766.67 140,-1766.67 140,-1774.33 140,-1774.33 140,-1778.17 136.17,-1782 132.33,-1782"/>
<text text-anchor="middle" x="82" y="-1766.8" font-family="Arial" font-size="14.00" fill="#cfffac">types/property.ts</text>
</g>
<!-- types/request.ts -->
<g id="node54" class="node">
<title>types/request.ts</title>
<path fill="none" stroke="#c6c5fe" d="M1193.83,-23C1193.83,-23 1097.17,-23 1097.17,-23 1093.33,-23 1089.5,-19.17 1089.5,-15.33 1089.5,-15.33 1089.5,-7.67 1089.5,-7.67 1089.5,-3.83 1093.33,0 1097.17,0 1097.17,0 1193.83,0 1193.83,0 1197.67,0 1201.5,-3.83 1201.5,-7.67 1201.5,-7.67 1201.5,-15.33 1201.5,-15.33 1201.5,-19.17 1197.67,-23 1193.83,-23"/>
<text text-anchor="middle" x="1145.5" y="-7.8" font-family="Arial" font-size="14.00" fill="#c6c5fe">types/request.ts</text>
</g>
<!-- types/request.ts&#45;&gt;types/user.ts -->
<g id="edge123" class="edge">
<title>types/request.ts&#45;&gt;types/user.ts</title>
<path fill="none" stroke="#757575" d="M1201.74,-13.1C1221.53,-15.69 1243.3,-21 1261,-31.5 1302.59,-56.18 1333.54,-105.58 1348.67,-133.69"/>
<polygon fill="#757575" stroke="#757575" points="1345.62,-135.42 1353.35,-142.67 1351.83,-132.18 1345.62,-135.42"/>
</g>
<!-- types/uploadService.d.ts -->
<g id="node55" class="node">
<title>types/uploadService.d.ts</title>
<path fill="none" stroke="#cfffac" d="M156.33,-1823C156.33,-1823 7.67,-1823 7.67,-1823 3.83,-1823 0,-1819.17 0,-1815.33 0,-1815.33 0,-1807.67 0,-1807.67 0,-1803.83 3.83,-1800 7.67,-1800 7.67,-1800 156.33,-1800 156.33,-1800 160.17,-1800 164,-1803.83 164,-1807.67 164,-1807.67 164,-1815.33 164,-1815.33 164,-1819.17 160.17,-1823 156.33,-1823"/>
<text text-anchor="middle" x="82" y="-1807.8" font-family="Arial" font-size="14.00" fill="#cfffac">types/uploadService.d.ts</text>
</g>
<!-- websocket/messageHandler.ts -->
<g id="node56" class="node">
<title>websocket/messageHandler.ts</title>
<path fill="none" stroke="#c6c5fe" d="M1237.83,-1927C1237.83,-1927 1053.17,-1927 1053.17,-1927 1049.33,-1927 1045.5,-1923.17 1045.5,-1919.33 1045.5,-1919.33 1045.5,-1911.67 1045.5,-1911.67 1045.5,-1907.83 1049.33,-1904 1053.17,-1904 1053.17,-1904 1237.83,-1904 1237.83,-1904 1241.67,-1904 1245.5,-1907.83 1245.5,-1911.67 1245.5,-1911.67 1245.5,-1919.33 1245.5,-1919.33 1245.5,-1923.17 1241.67,-1927 1237.83,-1927"/>
<text text-anchor="middle" x="1145.5" y="-1911.8" font-family="Arial" font-size="14.00" fill="#c6c5fe">websocket/messageHandler.ts</text>
</g>
<!-- websocket/messageHandler.ts&#45;&gt;config/index.ts -->
<g id="edge128" class="edge">
<title>websocket/messageHandler.ts&#45;&gt;config/index.ts</title>
<path fill="none" stroke="#757575" d="M1231.15,-1903.93C1241.73,-1900.33 1251.98,-1895.63 1261,-1889.5 1306.38,-1858.68 1336.82,-1799.25 1350.59,-1767.58"/>
<polygon fill="#757575" stroke="#757575" points="1353.82,-1768.92 1354.47,-1758.34 1347.37,-1766.21 1353.82,-1768.92"/>
</g>
</g>
</svg>
